<svg width="24" height="24" viewBox="0 0 24 24" fill="none" xmlns="http://www.w3.org/2000/svg">
<g clip-path="url(#clip0_2_206)">
<path fill-rule="evenodd" clip-rule="evenodd" d="M12 24C18.627 24 24 18.627 24 12C24 5.373 18.627 0 12 0C5.373 0 0 5.373 0 12C0 18.627 5.373 24 12 24ZM8 7.4C7.84087 7.4 7.68826 7.46321 7.57574 7.57574C7.46321 7.68826 7.4 7.84087 7.4 8C7.4 8.15913 7.46321 8.31174 7.57574 8.42426C7.68826 8.53679 7.84087 8.6 8 8.6H14.552L7.939 15.212C7.82642 15.3246 7.76317 15.4773 7.76317 15.6365C7.76317 15.7957 7.82642 15.9484 7.939 16.061C8.05158 16.1736 8.20428 16.2368 8.3635 16.2368C8.52272 16.2368 8.67542 16.1736 8.788 16.061L15.4 9.449V16C15.4 16.1591 15.4632 16.3117 15.5757 16.4243C15.6883 16.5368 15.8409 16.6 16 16.6C16.1591 16.6 16.3117 16.5368 16.4243 16.4243C16.5368 16.3117 16.6 16.1591 16.6 16V8C16.6 7.92121 16.5845 7.84319 16.5543 7.77039C16.5242 7.69759 16.48 7.63145 16.4243 7.57574C16.3685 7.52002 16.3024 7.47583 16.2296 7.44567C16.1568 7.41552 16.0788 7.4 16 7.4H8Z" fill="#2C2620"/>
</g>
<defs>
<clipPath id="clip0_2_206">
<rect width="24" height="24" fill="white"/>
</clipPath>
</defs>
</svg>
