<svg width="99" height="106" viewBox="0 0 99 106" fill="none" xmlns="http://www.w3.org/2000/svg">
<g clip-path="url(#clip0_2_99)">
<mask id="mask0_2_99" style="mask-type:alpha" maskUnits="userSpaceOnUse" x="0" y="0" width="99" height="106">
<path d="M0.265625 0H98.1118V103.336C98.1119 103.649 98.0398 103.958 97.9011 104.239C97.7625 104.52 97.561 104.765 97.3122 104.955C97.0635 105.145 96.7743 105.276 96.467 105.336C96.1597 105.397 95.8426 105.386 95.5403 105.304L49.7218 92.8947C49.3727 92.8001 49.0047 92.8001 48.6556 92.8947L2.83714 105.304C2.53484 105.386 2.21773 105.397 1.91042 105.336C1.60311 105.276 1.31387 105.145 1.06516 104.955C0.816439 104.765 0.61493 104.52 0.476271 104.239C0.337612 103.958 0.265532 103.649 0.265625 103.336V0Z" fill="#D9C2EC"/>
</mask>
<g mask="url(#mask0_2_99)">
<path d="M0.265625 -48.0645H98.1118V125.885H0.265625V-48.0645Z" fill="#ED619E"/>
</g>
<path d="M45.8134 68.5654H39.7266V74.877H45.8134V68.5654Z" fill="#FEDBB0"/>
<path d="M59.2743 68.5654H53.1875V74.877H59.2743V68.5654Z" fill="#FEDBB0"/>
<path d="M60.2522 39.0342H38.7422V56.8812H60.2522V39.0342Z" fill="#8DC8D8"/>
<path d="M37.9953 30.3984C39.697 30.3984 41.0766 29.0201 41.0766 27.3198C41.0766 25.6195 39.697 24.2412 37.9953 24.2412C36.2936 24.2412 34.9141 25.6195 34.9141 27.3198C34.9141 29.0201 36.2936 30.3984 37.9953 30.3984Z" fill="#FEDBB0"/>
<path d="M39.7843 27.3195C39.7843 28.3053 38.9844 29.1048 37.9976 29.1048C37.0108 29.1048 36.2109 28.3056 36.2109 27.3195C36.2109 26.3337 37.0108 25.5342 37.9976 25.5342C38.9844 25.5342 39.7843 26.3334 39.7843 27.3195Z" fill="#E8C197"/>
<path d="M60.6828 30.3984C62.3845 30.3984 63.7641 29.0201 63.7641 27.3198C63.7641 25.6195 62.3845 24.2412 60.6828 24.2412C58.9811 24.2412 57.6016 25.6195 57.6016 27.3198C57.6016 29.0201 58.9811 30.3984 60.6828 30.3984Z" fill="#FEDBB0"/>
<path d="M62.4718 27.3195C62.4718 28.3053 61.6719 29.1048 60.6851 29.1048C59.6983 29.1048 58.8984 28.3056 58.8984 27.3195C58.8984 26.3337 59.6983 25.5342 60.6851 25.5342C61.6719 25.5342 62.4718 26.3334 62.4718 27.3195Z" fill="#E8C197"/>
<path d="M49.3351 43.004C47.2041 43.004 45.4766 41.2781 45.4766 39.1492V35.1113H53.1933V39.1492C53.1936 41.2781 51.4661 43.004 49.3351 43.004Z" fill="#E8C197"/>
<path d="M60.6781 22.8481V28.1423C60.7159 33.8118 55.432 38.3905 49.3352 38.342C43.2385 38.3898 37.9545 33.8118 37.9924 28.1423V22.8481C37.9924 17.2159 43.0718 12.6484 49.3352 12.6484C55.5997 12.6468 60.6764 17.2169 60.6781 22.8481Z" fill="#FEDBB0"/>
<path d="M45.4328 25.731C45.4328 26.4797 44.8252 27.087 44.0758 27.087C43.3264 27.087 42.7188 26.4801 42.7188 25.731C42.7188 24.9823 43.3264 24.375 44.0758 24.375C44.8252 24.375 45.4328 24.9823 45.4328 25.731Z" fill="#725246"/>
<path d="M54.607 27.087C55.3565 27.087 55.964 26.4799 55.964 25.731C55.964 24.9821 55.3565 24.375 54.607 24.375C53.8576 24.375 53.25 24.9821 53.25 25.731C53.25 26.4799 53.8576 27.087 54.607 27.087Z" fill="#725246"/>
<path d="M66.6532 79.6044C66.6532 76.9933 64.5348 74.877 61.9218 74.877H52.8971C52.5482 74.877 52.2656 75.1595 52.2656 75.5081V79.6044C52.2656 80.9986 53.3969 82.1288 54.7924 82.1288H64.1268C65.5216 82.1292 66.6532 80.9986 66.6532 79.6044Z" fill="#7EB7C4"/>
<path d="M32.3516 79.6044C32.3516 76.9933 34.4699 74.877 37.083 74.877H46.1076C46.4566 74.877 46.7391 75.1595 46.7391 75.5081V79.6044C46.7391 80.9986 45.6079 82.1288 44.2124 82.1288H34.8783C33.4831 82.1292 32.3516 80.9986 32.3516 79.6044Z" fill="#7EB7C4"/>
<path d="M38.7422 56.8818V67.9352C38.7422 68.2838 39.0251 68.5663 39.3737 68.5663H46.1043C46.4533 68.5663 46.7358 68.2838 46.7358 67.9352V66.4905C46.7358 66.1419 47.0187 65.8593 47.3674 65.8593H51.6263C51.9753 65.8593 52.2579 66.1419 52.2579 66.4905V67.9352C52.2579 68.2838 52.5407 68.5663 52.8894 68.5663H59.62C59.9689 68.5663 60.2515 68.2838 60.2515 67.9352V56.8818H38.7422Z" fill="#A3A09D"/>
<path d="M32.6562 47.3157H38.743V39.0342H38.7404C35.3802 39.0342 32.6562 41.7582 32.6562 45.1183V47.3157Z" fill="#7EB7C4"/>
<path d="M37.5285 60.184H38.7434V47.3154H32.6562V55.3121C32.6562 58.0025 34.8377 60.184 37.5285 60.184Z" fill="#FEDBB0"/>
<path d="M66.3446 47.3157H60.2578V39.0342H60.2605C63.6206 39.0342 66.3446 41.7582 66.3446 45.1183V47.3157Z" fill="#7EB7C4"/>
<path d="M61.4727 60.184H60.2578V47.3154H66.3446V55.3121C66.3446 58.0025 64.1635 60.184 61.4727 60.184Z" fill="#FEDBB0"/>
<path d="M53.8541 29.5156C54.5251 29.5156 55.0335 30.1422 54.8784 30.7953C54.3013 33.2224 52.1196 35.0277 49.5158 35.0277C46.912 35.0277 44.7302 33.2224 44.1531 30.7953C43.9977 30.1425 44.5064 29.5156 45.1774 29.5156H53.8541Z" fill="#D1AB86"/>
<path d="M49.5174 35.0279C51.6757 35.0279 53.4254 34.3003 53.4254 33.4026C53.4254 32.505 51.6757 31.7773 49.5174 31.7773C47.359 31.7773 45.6094 32.505 45.6094 33.4026C45.6094 34.3003 47.359 35.0279 49.5174 35.0279Z" fill="#E8C197"/>
<path d="M38.2281 26.3429C39.2259 26.3429 40.0344 25.5341 40.0344 24.5367V22.9034C40.0344 22.8828 40.0344 22.8626 40.0347 22.8423C40.054 19.8288 42.5661 17.4229 45.5796 17.4229H53.4528C56.4663 17.4229 58.9787 19.8288 58.9977 22.8423C58.9977 22.8626 58.998 22.8831 58.998 22.9034V24.5367C58.998 25.5344 59.8068 26.3429 60.8043 26.3429C61.802 26.3429 62.6105 25.5341 62.6105 24.5367V21.9654C62.6105 14.7338 56.7478 8.87109 49.5162 8.87109C42.2842 8.87109 36.4219 14.7338 36.4219 21.9654V24.5363C36.4219 25.5341 37.2307 26.3429 38.2281 26.3429Z" fill="#725246"/>
<path d="M61.9219 73.5491H60.6021V69.6318C61.1881 69.2928 61.5833 68.659 61.5833 67.9348V61.5113C64.9501 61.4509 67.6701 58.6934 67.6701 55.3123V45.1186C67.6701 41.0313 64.3448 37.7063 60.2578 37.7063H56.3953C58.7401 36.2603 60.5307 34.1231 61.4046 31.6674C63.4918 31.3201 65.0878 29.5028 65.0878 27.3204C65.0878 26.2084 64.6761 25.1615 63.939 24.356V21.9654C63.939 14.0129 57.4691 7.54297 49.5166 7.54297C41.5641 7.54297 35.0941 14.0129 35.0941 21.9654V24.0037C34.1472 24.8328 33.5827 26.0441 33.5827 27.3197C33.5827 29.5025 35.1788 31.3197 37.2656 31.6667C38.1395 34.1227 39.9298 36.2597 42.275 37.7057H38.7425C34.6552 37.7057 31.3302 41.031 31.3302 45.1179V55.3116C31.3302 58.6927 34.0502 61.4502 37.417 61.5107V67.9341C37.417 68.6583 37.8121 69.2921 38.3982 69.6311V73.5485H37.083C33.7418 73.5485 31.0234 76.2651 31.0234 79.604C31.0234 81.7284 32.7527 83.4566 34.8783 83.4566H44.2127C46.3384 83.4566 48.0676 81.7284 48.0676 79.604V75.5078C48.0676 74.8065 47.697 74.1903 47.1416 73.844V69.5986C47.697 69.2523 48.0676 68.6361 48.0676 67.9348V67.1871H50.9337V67.9348C50.9337 68.6361 51.3039 69.2523 51.8597 69.5986V73.8476C51.3069 74.1943 50.9383 74.8092 50.9383 75.5088V79.605C50.9383 81.7294 52.6676 83.4576 54.7932 83.4576H64.1273C66.2529 83.4576 67.9822 81.7294 67.9822 79.605C67.9818 76.2658 65.2632 73.5491 61.9219 73.5491ZM64.127 82.1295H54.7929C53.3974 82.1295 52.2661 80.9992 52.2661 79.605V75.5088C52.2661 75.1601 52.549 74.8776 52.8977 74.8776H53.1872V68.566H52.893C52.544 68.566 52.2612 68.2834 52.2612 67.9348V66.4901C52.2612 66.1415 51.9783 65.8589 51.6296 65.8589H47.3707C47.0217 65.8589 46.7391 66.1415 46.7391 66.4901V67.9348C46.7391 68.2834 46.4562 68.566 46.1073 68.566H45.8131V74.8776H46.1073C46.4562 74.8776 46.7391 75.1601 46.7391 75.5088V79.605C46.7391 80.9992 45.6079 82.1295 44.2124 82.1295H34.8777C33.4821 82.1295 32.3509 80.9992 32.3509 79.605C32.3509 76.9939 34.4693 74.8776 37.0823 74.8776H39.7256V68.566H39.3763C39.0274 68.566 38.7445 68.2834 38.7445 67.9348V60.1842H37.5296C34.8388 60.1842 32.6577 58.0031 32.6577 55.3123V45.1186C32.6577 41.7585 35.3817 39.0345 38.7418 39.0345H45.4764V37.7389C41.9214 36.5688 39.1177 33.8027 38.2637 30.3851C38.1741 30.393 38.0837 30.3987 37.9918 30.3987C36.2901 30.3987 34.9105 29.0204 34.9105 27.3201C34.9105 26.1905 35.5211 25.206 36.4286 24.6705C36.4253 24.6263 36.4219 24.5818 36.4219 24.5367V21.9654C36.4219 14.7334 42.2846 8.87109 49.5163 8.87109C56.7479 8.87109 62.6106 14.7338 62.6106 21.9654V24.5363C62.6106 24.6598 62.5979 24.78 62.5744 24.8966C63.2945 25.46 63.7594 26.3349 63.7594 27.3197C63.7594 29.0201 62.3798 30.3983 60.6781 30.3983C60.5862 30.3983 60.4959 30.3924 60.4062 30.3847C59.5522 33.8023 56.7486 36.5688 53.1935 37.7386V39.0338H60.2575C63.6176 39.0338 66.3416 41.7578 66.3416 45.1179V55.3116C66.3416 58.0024 64.1605 60.1835 61.4697 60.1835H60.2548V67.9341C60.2548 68.2828 59.9719 68.5653 59.6229 68.5653H59.2736V74.8769H61.9216C64.5347 74.8769 66.653 76.9936 66.653 79.6044C66.6537 80.9989 65.5221 82.1295 64.127 82.1295Z" fill="#422618"/>
</g>
<defs>
<clipPath id="clip0_2_99">
<rect width="97.8462" height="106" fill="white" transform="translate(0.265625)"/>
</clipPath>
</defs>
</svg>
