<svg width="98" height="106" viewBox="0 0 98 106" fill="none" xmlns="http://www.w3.org/2000/svg">
<g clip-path="url(#clip0_2_375)">
<mask id="mask0_2_375" style="mask-type:alpha" maskUnits="userSpaceOnUse" x="0" y="0" width="98" height="106">
<path d="M0.0781251 0H97.9243V103.336C97.9244 103.649 97.8523 103.958 97.7136 104.239C97.575 104.52 97.3735 104.765 97.1247 104.955C96.876 105.145 96.5868 105.276 96.2795 105.336C95.9722 105.397 95.6551 105.386 95.3528 105.304L49.5343 92.8947C49.1852 92.8001 48.8172 92.8001 48.4681 92.8947L2.64964 105.304C2.34734 105.386 2.03023 105.397 1.72292 105.336C1.41561 105.276 1.12637 105.145 0.877656 104.955C0.628939 104.765 0.42743 104.52 0.288771 104.239C0.150112 103.958 0.0780322 103.649 0.0781251 103.336V0Z" fill="#D9C2EC"/>
</mask>
<g mask="url(#mask0_2_375)">
<path d="M-8.75781 -26.4619H119.331V134.769H-8.75781V-26.4619Z" fill="#0DA5B3"/>
</g>
<path d="M44.5995 67.8584H38.1953V74.499H44.5995V67.8584Z" fill="#FEDBB0"/>
<path d="M58.7636 67.8584H52.3594V74.499H58.7636V67.8584Z" fill="#FEDBB0"/>
<path d="M59.7963 36.7861H37.1641V55.5642H59.7963V36.7861Z" fill="#8DC8D8"/>
<path d="M48.3315 43.9745C48.8381 43.9745 49.2489 43.5637 49.2489 43.0571C49.2489 42.5504 48.8381 42.1396 48.3315 42.1396C47.8248 42.1396 47.4141 42.5504 47.4141 43.0571C47.4141 43.5637 47.8248 43.9745 48.3315 43.9745Z" fill="#6EA6AF"/>
<path d="M48.3315 47.3348C48.8381 47.3348 49.2489 46.9241 49.2489 46.4174C49.2489 45.9107 48.8381 45.5 48.3315 45.5C47.8248 45.5 47.4141 45.9107 47.4141 46.4174C47.4141 46.9241 47.8248 47.3348 48.3315 47.3348Z" fill="#6EA6AF"/>
<path d="M37.8284 28.7947C39.4034 28.7947 40.6802 27.5189 40.6802 25.9452C40.6802 24.3715 39.4034 23.0957 37.8284 23.0957C36.2534 23.0957 34.9766 24.3715 34.9766 25.9452C34.9766 27.5189 36.2534 28.7947 37.8284 28.7947Z" fill="#FEDBB0"/>
<path d="M39.4789 25.9452C39.4789 26.8576 38.7385 27.5973 37.8254 27.5973C36.912 27.5973 36.1719 26.8576 36.1719 25.9452C36.1719 25.0327 36.9123 24.293 37.8254 24.293C38.7388 24.293 39.4789 25.0327 39.4789 25.9452Z" fill="#E8C197"/>
<path d="M58.8284 28.7947C60.4034 28.7947 61.6802 27.5189 61.6802 25.9452C61.6802 24.3715 60.4034 23.0957 58.8284 23.0957C57.2534 23.0957 55.9766 24.3715 55.9766 25.9452C55.9766 27.5189 57.2534 28.7947 58.8284 28.7947Z" fill="#FEDBB0"/>
<path d="M60.4789 25.9452C60.4789 26.8576 59.7385 27.5973 58.8254 27.5973C57.9123 27.5973 57.1719 26.8576 57.1719 25.9452C57.1719 25.0327 57.9123 24.293 58.8254 24.293C59.7385 24.293 60.4789 25.0327 60.4789 25.9452Z" fill="#E8C197"/>
<path d="M48.3288 40.4603C46.3565 40.4603 44.7578 38.8629 44.7578 36.8923V33.1553H51.8998V36.8923C51.8998 38.8629 50.3007 40.4603 48.3288 40.4603Z" fill="#E8C197"/>
<path d="M58.824 21.8052V26.705C58.8592 31.9521 53.9687 36.1898 48.3262 36.145C42.6836 36.1895 37.7928 31.9524 37.8283 26.705V21.8052C37.8283 16.5927 42.5295 12.3652 48.3262 12.3652C54.1237 12.3639 58.8223 16.5937 58.824 21.8052Z" fill="#FEDBB0"/>
<path d="M44.7153 24.4735C44.7153 25.1664 44.1528 25.7286 43.4592 25.7286C42.7656 25.7286 42.2031 25.1668 42.2031 24.4735C42.2031 23.7805 42.7656 23.2188 43.4592 23.2188C44.1531 23.2184 44.7153 23.7802 44.7153 24.4735Z" fill="#725246"/>
<path d="M53.2014 25.7289C53.8951 25.7289 54.4575 25.167 54.4575 24.4738C54.4575 23.7807 53.8951 23.2188 53.2014 23.2188C52.5077 23.2188 51.9453 23.7807 51.9453 24.4738C51.9453 25.167 52.5077 25.7289 53.2014 25.7289Z" fill="#725246"/>
<path d="M66.5289 79.4732C66.5289 76.726 64.3 74.499 61.5504 74.499H51.3913L51.3906 74.4997V79.4732C51.3906 80.9401 52.58 82.1294 54.0469 82.1294H63.8704C65.3386 82.1294 66.5289 80.9401 66.5289 79.4732Z" fill="#827F7E"/>
<path d="M30.4375 79.4732C30.4375 76.726 32.6664 74.499 35.416 74.499H45.5758V79.4732C45.5758 80.9401 44.3865 82.1294 42.9196 82.1294H33.0961C31.6278 82.1294 30.4375 80.9401 30.4375 79.4732Z" fill="#827F7E"/>
<path d="M45.264 10.3352C45.2793 15.0956 42.6144 19.3997 38.5573 21.6054C37.699 22.0719 36.6455 21.4005 36.7315 20.428C37.023 17.1246 38.4926 14.1011 40.8022 11.9718C42.05 10.817 43.5428 9.92684 45.2272 9.3916C45.2508 9.70305 45.264 10.0168 45.264 10.3352Z" fill="#5E3E2F"/>
<path d="M59.5774 20.8196C52.0556 24.6993 42.5987 20.271 40.8047 11.9713C42.0455 10.8231 43.5283 9.93624 45.2011 9.40001C52.1944 7.13191 59.1634 12.4491 60.2252 19.5559C60.3019 20.0698 60.0393 20.5812 59.5774 20.8196Z" fill="#725246"/>
<path d="M37.1641 55.5645V74.4989H45.5747V65.6748C45.5747 65.3076 45.8722 65.0101 46.2395 65.0101H50.7206C51.0878 65.0101 51.3853 65.3076 51.3853 65.6748V74.4989H59.796V55.5645H37.1641Z" fill="#A3A09D"/>
<path d="M40.9645 59.0395C40.6175 59.0395 40.3359 58.7583 40.3359 58.4116V55.5645H41.593V58.4116C41.593 58.7586 41.3118 59.0395 40.9645 59.0395Z" fill="#827F7E"/>
<path d="M45.9723 59.0395C45.6253 59.0395 45.3438 58.7583 45.3438 58.4116V55.5645H46.6008V58.4116C46.6008 58.7586 46.3193 59.0395 45.9723 59.0395Z" fill="#827F7E"/>
<path d="M50.9879 59.0395C50.6409 59.0395 50.3594 58.7583 50.3594 58.4116V55.5645H51.6164V58.4116C51.6164 58.7586 51.3349 59.0395 50.9879 59.0395Z" fill="#827F7E"/>
<path d="M55.9957 59.0395C55.6488 59.0395 55.3672 58.7583 55.3672 58.4116V55.5645H56.6243V58.4116C56.6239 58.7586 56.3427 59.0395 55.9957 59.0395Z" fill="#827F7E"/>
<path d="M50.6204 31.9054H46.3358C45.528 31.9054 44.7922 31.4957 44.3666 30.8094L44.1697 30.4913C43.9768 30.1795 44.0734 29.7701 44.3848 29.5772C44.6966 29.384 45.1057 29.4802 45.2992 29.7924L45.4958 30.1101C45.6771 30.4026 45.9909 30.5773 46.3355 30.5773H50.62C50.9647 30.5773 51.2785 30.4026 51.4601 30.1094L51.6563 29.7924C51.8496 29.4806 52.2583 29.384 52.5707 29.5772C52.8822 29.7701 52.9788 30.1792 52.7859 30.4913L52.5893 30.809C52.1643 31.4957 51.4282 31.9054 50.6204 31.9054Z" fill="#D1AB86"/>
<path d="M30.7578 45.4996H37.162V36.7861H37.1594C33.6239 36.7861 30.7578 39.6522 30.7578 43.1877V45.4996Z" fill="#7EB7C4"/>
<path d="M35.884 59.0396H37.1624V45.5H30.7578V53.9137C30.7578 56.7446 33.0528 59.0396 35.884 59.0396Z" fill="#FEDBB0"/>
<path d="M66.2011 45.4996H59.7969V36.7861H59.7995C63.335 36.7861 66.2011 39.6522 66.2011 43.1877V45.4996Z" fill="#7EB7C4"/>
<path d="M61.0752 59.0396H59.7969V45.5H66.2011V53.9137C66.2014 56.7446 63.9061 59.0396 61.0752 59.0396Z" fill="#FEDBB0"/>
<path d="M58.1002 77.6218H58.0996C57.734 77.6218 57.4375 77.3253 57.4375 76.9597V74.499H58.7623V76.9597C58.7626 77.3253 58.4661 77.6218 58.1002 77.6218Z" fill="#8DC8D8"/>
<path d="M60.7018 77.6218H60.7011C60.3356 77.6218 60.0391 77.3253 60.0391 76.9597V74.499H61.3639V76.9597C61.3639 77.3253 61.0674 77.6218 60.7018 77.6218Z" fill="#8DC8D8"/>
<path d="M36.2565 77.6218H36.2558C35.8903 77.6218 35.5938 77.3253 35.5938 76.9597V74.499H36.9186V76.9597C36.9186 77.3253 36.6221 77.6218 36.2565 77.6218Z" fill="#8DC8D8"/>
<path d="M38.858 77.6218H38.8574C38.4918 77.6218 38.1953 77.3253 38.1953 76.9597V74.499H39.5201V76.9597C39.5204 77.3253 39.2239 77.6218 38.858 77.6218Z" fill="#8DC8D8"/>
<path d="M61.5512 73.1709H61.1255V60.3675C64.6613 60.3406 67.5297 57.4556 67.5297 53.9135V43.1882C67.5297 38.9259 64.0623 35.4585 59.8 35.4585H55.2027C57.2337 34.1251 58.7863 32.2258 59.5729 30.0557C61.5233 29.7031 63.0071 27.9938 63.0071 25.9448C63.0071 24.1186 61.8284 22.5624 60.1918 21.996C61.157 21.4939 61.6972 20.4357 61.5362 19.36C61.0581 16.1595 59.4776 13.1885 57.0863 10.9944C54.6608 8.76883 51.6161 7.5433 48.513 7.54297C47.2854 7.54297 46.0586 7.73455 44.8663 8.11273C44.8526 8.11672 44.839 8.1207 44.8254 8.12502C39.5959 9.78186 35.8994 14.5664 35.4077 20.3142C35.3449 21.0238 35.5767 21.6872 36.0057 22.1869C34.6128 22.8652 33.6506 24.2949 33.6506 25.9448C33.6506 27.9941 35.1344 29.7031 37.0844 30.0557C37.871 32.2255 39.4239 34.1251 41.4546 35.4585H37.1625C32.9002 35.4585 29.4328 38.9259 29.4328 43.1882V53.9135C29.4328 57.4556 32.3012 60.3406 35.837 60.3675V73.1709H35.416C31.9386 73.1709 29.1094 75.9982 29.1094 79.4732C29.1094 81.6703 30.8977 83.4576 33.0961 83.4576H42.9196C45.1166 83.4576 46.9039 81.6703 46.9039 79.4732V74.4991V66.3384H50.0582V74.4991C50.0582 74.5372 50.0599 74.5751 50.0629 74.6126V79.4732C50.0629 81.6703 51.8502 83.4576 54.0472 83.4576H63.8707C66.0691 83.4576 67.8574 81.6703 67.8574 79.4732C67.8578 75.9982 65.0285 73.1709 61.5512 73.1709ZM63.8711 82.1295H54.0476C52.5807 82.1295 51.3913 80.9401 51.3913 79.4732V74.4997C51.3913 74.4994 51.3917 74.4991 51.392 74.4991H51.3867V65.675C51.3867 65.3078 51.0892 65.0103 50.722 65.0103H46.2409C45.8736 65.0103 45.5761 65.3078 45.5761 65.675V74.4991V79.4732C45.5761 80.9401 44.3868 82.1295 42.9199 82.1295H33.0964C31.6282 82.1295 30.4378 80.9401 30.4378 79.4732C30.4378 76.726 32.6668 74.4991 35.4163 74.4991H37.1654V59.0397H35.8871C33.0562 59.0397 30.7609 56.7447 30.7609 53.9135V43.1882C30.7609 39.6527 33.627 36.7866 37.1625 36.7866H44.758V35.5877C41.4679 34.5049 38.8731 31.9446 38.0825 28.7817C37.9995 28.789 37.9158 28.7943 37.8308 28.7943C36.2557 28.7943 34.979 27.5186 34.979 25.9448C34.979 24.371 36.2557 23.0953 37.8308 23.0953C37.8308 22.3602 37.8308 21.8057 37.8308 21.8057C37.8308 21.7858 37.8325 21.7662 37.8325 21.7463C37.2056 21.6762 36.6691 21.1323 36.7312 20.4274C37.1645 15.3616 40.4413 10.9071 45.2265 9.39105C45.2265 9.39139 45.2265 9.39172 45.2265 9.39172C46.3305 9.03678 47.4335 8.87076 48.5126 8.87076C54.2604 8.87076 59.3292 13.5806 60.222 19.5559C60.2987 20.0695 60.0361 20.5812 59.5742 20.8192C59.3189 20.9511 59.0603 21.0699 58.8009 21.1825C58.8159 21.3887 58.8262 21.5959 58.8265 21.8054V23.095C60.4017 23.095 61.6786 24.3706 61.6786 25.9445C61.6786 27.518 60.402 28.794 58.8268 28.794C58.7418 28.794 58.6582 28.7887 58.5752 28.7813C57.7846 31.9443 55.1898 34.5046 51.8997 35.5873V36.7863H59.7997C63.3352 36.7863 66.2012 39.6524 66.2012 43.1879V53.9131C66.2012 56.744 63.9062 59.0394 61.0753 59.0394H59.797V74.4987H61.5508C64.3004 74.4987 66.5293 76.7257 66.5293 79.4729C66.5296 80.9401 65.3393 82.1295 63.8711 82.1295Z" fill="#422618"/>
</g>
<defs>
<clipPath id="clip0_2_375">
<rect width="97.8462" height="106" fill="white" transform="translate(0.078125)"/>
</clipPath>
</defs>
</svg>
