<svg width="98" height="106" viewBox="0 0 98 106" fill="none" xmlns="http://www.w3.org/2000/svg">
<g clip-path="url(#clip0_21_3138)">
<mask id="mask0_21_3138" style="mask-type:alpha" maskUnits="userSpaceOnUse" x="0" y="0" width="98" height="106">
<path d="M0.0781251 0H97.9243V103.336C97.9244 103.649 97.8523 103.958 97.7136 104.239C97.575 104.52 97.3735 104.765 97.1247 104.955C96.876 105.145 96.5868 105.276 96.2795 105.336C95.9722 105.397 95.6551 105.386 95.3528 105.304L49.5343 92.8947C49.1852 92.8001 48.8172 92.8001 48.4681 92.8947L2.64964 105.304C2.34734 105.386 2.03023 105.397 1.72292 105.336C1.41561 105.276 1.12637 105.145 0.877656 104.955C0.628939 104.765 0.42743 104.52 0.288771 104.239C0.150112 103.958 0.0780322 103.649 0.0781251 103.336V0Z" fill="#D9C2EC"/>
</mask>
<g mask="url(#mask0_21_3138)">
<path d="M-12.1562 -28.5381H114.16V130.462H-12.1562V-28.5381Z" fill="#ED619E"/>
</g>
<path d="M81.8676 69.7937L83.7411 71.6779L81.8641 69.7937H81.8676ZM37.2213 62.1579L39.0913 60.2737L37.2178 62.1579H37.2213ZM22.6084 24.6445L20.7384 22.7639L22.612 24.6481L22.6084 24.6445ZM64.8888 59.197L66.5074 57.5927L62.7568 53.8243L61.1488 55.4287L64.8888 59.197ZM71.9226 56.9198L78.6907 60.5995L81.223 55.9316L74.4584 52.2554L71.9226 56.9198ZM79.9905 67.9095L74.9613 72.9139L78.7049 76.6787L83.7341 71.6779L79.9905 67.9095ZM71.8943 74.5218C66.7588 75.0035 53.4776 74.575 39.0913 60.2737L35.3443 64.0385C51.0409 79.6466 65.9832 80.4116 72.3901 79.8131L71.8907 74.5218H71.8943ZM39.0913 60.2737C25.3816 46.6383 23.1078 35.1739 22.8245 30.1979L17.5191 30.4989C17.8732 36.7606 20.6888 49.4681 35.3443 64.0385L39.0913 60.2737ZM43.9611 38.3862L44.9776 37.3733L41.2376 33.6085L40.2211 34.6179L43.9647 38.3827L43.9611 38.3862ZM45.7851 24.4993L41.3226 18.5352L37.0691 21.7227L41.5316 27.6833L45.7851 24.4993ZM26.3024 17.2354L20.742 22.7604L24.4891 26.5287L30.0459 21.0037L26.3024 17.2354ZM42.0911 36.502C40.2141 34.6179 40.2141 34.6179 40.2141 34.625H40.207L40.1963 34.6391C40.0291 34.8098 39.8785 34.996 39.7466 35.1952C39.5553 35.4785 39.3463 35.8504 39.1693 36.3214C38.738 37.5373 38.6306 38.8446 38.8576 40.1145C39.3322 43.1781 41.443 47.2262 46.8476 52.6025L50.5947 48.8341C45.5336 43.805 44.3295 40.745 44.1063 39.3C44.0001 38.6129 44.1099 38.2729 44.1418 38.195C44.1595 38.1454 44.1666 38.1418 44.1418 38.1737C44.1105 38.2228 44.075 38.2691 44.0355 38.3118L44.0001 38.3473C43.9886 38.3583 43.9768 38.3689 43.9647 38.3791L42.0876 36.502H42.0911ZM46.8476 52.6025C52.2557 57.9787 56.3251 60.0754 59.3922 60.5429C60.9611 60.7837 62.2255 60.5925 63.1853 60.2348C63.722 60.0361 64.224 59.754 64.6728 59.3989C64.7337 59.348 64.7928 59.2948 64.8499 59.2395L64.8747 59.2183L64.8853 59.2077L64.8888 59.2006C64.8888 59.2006 64.8924 59.197 63.0188 57.3129C61.1418 55.4287 61.1524 55.4252 61.1524 55.4252L61.1595 55.4181L61.1666 55.411L61.1878 55.3933L61.2232 55.3579C61.2658 55.3197 61.3107 55.2842 61.3578 55.2516C61.3932 55.2268 61.3826 55.2375 61.333 55.2587C61.2445 55.2906 60.8974 55.4004 60.1997 55.2941C58.7334 55.0675 55.6522 53.8633 50.5947 48.8341L46.8476 52.6025ZM41.3226 18.5316C37.7101 13.715 30.6126 12.95 26.3024 17.2354L30.0459 21.0037C31.9301 19.1302 35.2734 19.325 37.0691 21.7227L41.3191 18.5316H41.3226ZM22.828 30.2014C22.7572 28.976 23.3203 27.6939 24.4891 26.5323L20.7384 22.7639C18.8366 24.6552 17.3384 27.3327 17.5191 30.4989L22.828 30.2014ZM74.9613 72.9139C73.9909 73.8843 72.9426 74.4298 71.8978 74.5254L72.3901 79.8131C74.9932 79.5687 77.1218 78.2583 78.7084 76.6823L74.9613 72.9139ZM44.9776 37.3733C48.4661 33.906 48.7247 28.427 45.7886 24.5029L41.5351 27.6868C42.9624 29.5958 42.7499 32.0998 41.2341 33.612L44.9776 37.3733ZM78.6943 60.6031C81.5878 62.1756 82.0376 65.8802 79.9941 67.9131L83.7411 71.6779C88.487 66.9568 87.0243 59.0837 81.2266 55.9352L78.6943 60.6031ZM66.5074 57.5962C67.8674 56.2433 70.0561 55.9104 71.9261 56.9233L74.462 52.2589C70.6228 50.1693 65.8628 50.7466 62.7603 53.8279L66.5074 57.5962Z" fill="white"/>
</g>
<defs>
<clipPath id="clip0_21_3138">
<rect width="97.8462" height="106" fill="white" transform="translate(0.078125)"/>
</clipPath>
</defs>
</svg>
