<svg width="98" height="106" viewBox="0 0 98 106" fill="none" xmlns="http://www.w3.org/2000/svg">
<g clip-path="url(#clip0_21_1882)">
<mask id="mask0_21_1882" style="mask-type:alpha" maskUnits="userSpaceOnUse" x="0" y="0" width="98" height="106">
<path d="M0.0781251 0H97.9243V103.336C97.9244 103.649 97.8523 103.958 97.7136 104.239C97.575 104.52 97.3735 104.765 97.1247 104.955C96.876 105.145 96.5868 105.276 96.2795 105.336C95.9722 105.397 95.6551 105.386 95.3528 105.304L49.5343 92.8947C49.1852 92.8001 48.8172 92.8001 48.4681 92.8947L2.64964 105.304C2.34734 105.386 2.03023 105.397 1.72292 105.336C1.41561 105.276 1.12637 105.145 0.877656 104.955C0.628939 104.765 0.42743 104.52 0.288771 104.239C0.150112 103.958 0.0780322 103.649 0.0781251 103.336V0Z" fill="#D9C2EC"/>
</mask>
<g mask="url(#mask0_21_1882)">
<path d="M-12.1562 -28.5381H114.16V130.462H-12.1562V-28.5381Z" fill="#0DA5B3"/>
</g>
<path d="M77.0846 36.0403H66.5875C66.8899 35.7386 67.1662 35.4062 67.4088 35.0433C68.6228 33.2264 68.8483 30.9366 68.0121 28.9179C67.1759 26.8992 65.3973 25.4395 63.2544 25.0132C62.3067 24.8248 61.348 24.8511 60.4394 25.0715C60.6599 24.1628 60.6862 23.2041 60.4977 22.2566C60.0714 20.1135 58.6118 18.3349 56.593 17.4987C54.574 16.6622 52.2844 16.8878 50.4676 18.1019C49.6643 18.6386 49.005 19.3351 48.5184 20.1336C48.0318 19.3351 47.3724 18.6386 46.5691 18.1019C44.7523 16.8881 42.4627 16.6624 40.4437 17.4987C38.4251 18.3349 36.9654 20.1135 36.5391 22.2566C36.3506 23.2041 36.3768 24.1629 36.5975 25.0716C35.6888 24.8511 34.7299 24.8248 33.7825 25.0132C31.6395 25.4395 29.8609 26.8991 29.0247 28.9179C28.1886 30.9367 28.414 33.2266 29.628 35.0433C29.8705 35.4062 30.1469 35.7385 30.4494 36.0403H19.9522C19.4263 36.0403 19 36.4665 19 36.9925V54.3862C19 54.9122 19.4263 55.3384 19.9522 55.3384H22.8088V81.048C22.8088 81.574 23.2352 82.0002 23.761 82.0002H73.2759C73.8018 82.0002 74.2281 81.574 74.2281 81.048V55.3384H77.0848C77.6106 55.3384 78.037 54.9122 78.037 54.3862V36.9925C78.0368 36.4666 77.6105 36.0403 77.0846 36.0403ZM59.9345 38.2205C62.6899 39.0387 64.7059 41.5928 64.7059 44.6102V57.7374L62.8015 59.261V44.6102C62.8015 42.0731 61.6924 39.791 59.9345 38.2205ZM52.3247 37.9447H54.2316C57.907 37.9447 60.8971 40.9349 60.8971 44.6102V65.8218L53.2794 71.5273V40.8013C53.2794 39.7304 52.9238 38.741 52.3247 37.9447ZM51.375 40.8013V53.434H45.6617V40.8013C45.6617 39.2262 46.9431 37.9447 48.5184 37.9447C50.0936 37.9447 51.375 39.2262 51.375 40.8013ZM62.8827 26.881C64.4233 27.1875 65.6515 28.1956 66.2525 29.6466C66.8536 31.0977 66.6979 32.6792 65.8252 33.9852C64.9526 35.2912 63.5512 36.0403 61.9806 36.0403H50.8172L58.7109 28.1466C59.8216 27.0358 61.3422 26.5748 62.8827 26.881ZM51.5256 19.6856C52.8317 18.8129 54.413 18.6573 55.8641 19.2583C57.3152 19.8593 58.3233 21.0877 58.6297 22.6284C58.9362 24.1689 58.4749 25.6894 57.3642 26.7999L49.4706 34.6936V23.5303C49.4706 21.9595 50.2195 20.5582 51.5256 19.6856ZM38.4069 22.6282C38.7134 21.0875 39.7213 19.8592 41.1725 19.2582C42.6238 18.6573 44.205 18.8127 45.511 19.6855C46.8171 20.5581 47.566 21.9594 47.566 23.5302V34.6935L39.6725 26.7999C38.5618 25.6894 38.1006 24.1688 38.4069 22.6282ZM31.2115 33.9853C30.3388 32.6794 30.1831 31.0979 30.7842 29.6468C31.3852 28.1956 32.6135 27.1877 34.154 26.8812C35.6945 26.5748 37.2151 27.0359 38.3258 28.1467L46.2195 36.0404H35.0562C33.4854 36.0403 32.0841 35.2913 31.2115 33.9853ZM34.2352 44.6102V59.261L32.3308 57.7374V44.6102C32.3308 41.5928 34.3468 39.0387 37.1023 38.2205C35.3445 39.791 34.2352 42.0731 34.2352 44.6102ZM20.9043 37.9447H33.6181C31.6731 39.517 30.4264 41.9202 30.4264 44.6102V53.434H20.9043V37.9447ZM24.7131 80.0958V78.1914H72.3236V80.0958H24.7131ZM72.3236 76.287H24.7131V55.3384H30.4264V58.195C30.4264 58.4842 30.5579 58.758 30.7838 58.9385L34.2352 61.6997V65.8127C34.2352 66.1019 34.3667 66.3756 34.5926 66.5562L44.1147 74.1738C44.2869 74.3116 44.4974 74.3826 44.7096 74.3826C44.8498 74.3826 44.9909 74.3517 45.122 74.2886C45.4519 74.13 45.6617 73.7964 45.6617 73.4304V58.195C45.6617 57.669 45.2354 57.2428 44.7095 57.2428C44.1836 57.2428 43.7573 57.669 43.7573 58.195V71.4493L36.1396 65.3551V44.6102C36.1396 40.9349 39.1297 37.9447 42.8051 37.9447H44.7121C44.1129 38.741 43.7573 39.7303 43.7573 40.8013V54.3862C43.7573 54.9122 44.1836 55.3384 44.7095 55.3384H51.375V73.4304C51.375 73.7909 51.5786 74.1207 51.9011 74.2819C52.0359 74.3493 52.1818 74.3826 52.3271 74.3826C52.5292 74.3826 52.7302 74.3182 52.898 74.1925L62.4201 67.0605C62.6602 66.8807 62.8015 66.5982 62.8015 66.2983V61.6997L66.2529 58.9385C66.4788 58.7578 66.6103 58.4842 66.6103 58.195V55.3384H72.3236V76.287ZM76.1324 53.434H66.6103V44.6102C66.6103 41.9202 65.3636 39.517 63.4186 37.9447H76.1324V53.434Z" fill="white"/>
</g>
<defs>
<clipPath id="clip0_21_1882">
<rect width="97.8462" height="106" fill="white" transform="translate(0.078125)"/>
</clipPath>
</defs>
</svg>
