<svg width="98" height="106" viewBox="0 0 98 106" fill="none" xmlns="http://www.w3.org/2000/svg">
<g clip-path="url(#clip0_21_1918)">
<mask id="mask0_21_1918" style="mask-type:alpha" maskUnits="userSpaceOnUse" x="0" y="0" width="98" height="106">
<path d="M0.0781251 0H97.9243V103.336C97.9244 103.649 97.8523 103.958 97.7136 104.239C97.575 104.52 97.3735 104.765 97.1247 104.955C96.876 105.145 96.5868 105.276 96.2795 105.336C95.9722 105.397 95.6551 105.386 95.3528 105.304L49.5343 92.8947C49.1852 92.8001 48.8172 92.8001 48.4681 92.8947L2.64964 105.304C2.34734 105.386 2.03023 105.397 1.72292 105.336C1.41561 105.276 1.12637 105.145 0.877656 104.955C0.628939 104.765 0.42743 104.52 0.288771 104.239C0.150112 103.958 0.0780322 103.649 0.0781251 103.336V0Z" fill="#D9C2EC"/>
</mask>
<g mask="url(#mask0_21_1918)">
<path d="M-12.1562 -28.5381H114.16V130.462H-12.1562V-28.5381Z" fill="#ED619E"/>
</g>
<path d="M77.5688 22C76.5958 22 75.7403 22.5081 75.2545 23.2712C74.4337 22.485 73.3193 22 72.0926 22C70.6014 22 69.2751 22.7155 68.4418 23.8196C67.6086 22.7155 66.2823 22 64.791 22C63.2998 22 61.9735 22.7155 61.1402 23.8196C60.307 22.7155 58.9807 22 57.4895 22C55.9982 22 54.6719 22.7155 53.8387 23.8196C53.0054 22.7155 51.6791 22 50.1879 22C47.6715 22 45.6244 24.037 45.6244 26.541V27.4492H30.7778V26.541C30.7778 24.037 28.7307 22 26.2143 22C24.9876 22 23.8733 22.485 23.0525 23.2712C22.5667 22.5081 21.7112 22 20.7381 22C19.2284 22 18 23.2222 18 24.7246V64.6855C18 65.1871 18.4085 65.5938 18.9127 65.5938C19.4169 65.5938 19.8254 65.1871 19.8254 64.6855V24.7246C19.8254 24.2238 20.2348 23.8164 20.7381 23.8164C21.2414 23.8164 21.6508 24.2238 21.6508 24.7246V82.1836H19.8254V68.3184C19.8254 67.8168 19.4169 67.4102 18.9127 67.4102C18.4085 67.4102 18 67.8168 18 68.3184V83.0918C18 83.5934 18.4085 84 18.9127 84H22.5635C23.0677 84 23.4762 83.5934 23.4762 83.0918V73.7652C24.2395 74.3366 25.1877 74.6758 26.2143 74.6758C27.7055 74.6758 29.0319 73.9602 29.8651 72.8562C30.6983 73.9602 32.0247 74.6758 33.5159 74.6758C35.0071 74.6758 36.3334 73.9602 37.1667 72.8562C37.9999 73.9602 39.3263 74.6758 40.8175 74.6758C42.3087 74.6758 43.635 73.9602 44.4683 72.8562C45.3015 73.9602 46.6278 74.6758 48.1191 74.6758C50.6354 74.6758 52.6826 72.6387 52.6826 70.1348V69.2266H67.5291V70.1348C67.5291 72.6387 69.5763 74.6758 72.0926 74.6758C73.1192 74.6758 74.0675 74.3366 74.8307 73.7652V83.0918C74.8307 83.5934 75.2393 84 75.7434 84H79.3942C79.8984 84 80.3069 83.5934 80.3069 83.0918V24.7246C80.3069 23.2222 79.0786 22 77.5688 22ZM72.0926 23.8164C73.6024 23.8164 74.8307 25.0386 74.8307 26.541V33.8066C74.8307 35.3091 73.6024 36.5312 72.0926 36.5312C70.5829 36.5312 69.3545 35.3091 69.3545 33.8066V26.541C69.3545 25.0386 70.5829 23.8164 72.0926 23.8164ZM74.8307 51.9707C74.8307 53.4731 73.6024 54.6953 72.0926 54.6953C70.5829 54.6953 69.3545 53.4731 69.3545 51.9707V44.7051C69.3545 43.2027 70.5829 41.9805 72.0926 41.9805C73.6024 41.9805 74.8307 43.2027 74.8307 44.7051V51.9707ZM60.2276 51.9707C60.2276 53.4731 58.9992 54.6953 57.4895 54.6953C55.9797 54.6953 54.7514 53.4731 54.7514 51.9707V44.7051C54.7514 43.2027 55.9797 41.9805 57.4895 41.9805C58.9992 41.9805 60.2276 43.2027 60.2276 44.7051V51.9707ZM62.0529 44.7051C62.0529 43.2027 63.2813 41.9805 64.791 41.9805C66.3008 41.9805 67.5291 43.2027 67.5291 44.7051V51.9707C67.5291 53.4731 66.3008 54.6953 64.791 54.6953C63.2813 54.6953 62.0529 53.4731 62.0529 51.9707V44.7051ZM64.791 23.8164C66.3008 23.8164 67.5291 25.0386 67.5291 26.541V33.8066C67.5291 35.3091 66.3008 36.5312 64.791 36.5312C63.2813 36.5312 62.0529 35.3091 62.0529 33.8066V26.541C62.0529 25.0386 63.2813 23.8164 64.791 23.8164ZM57.4895 23.8164C58.9992 23.8164 60.2276 25.0386 60.2276 26.541V33.8066C60.2276 35.3091 58.9992 36.5312 57.4895 36.5312C55.9797 36.5312 54.7514 35.3091 54.7514 33.8066V26.541C54.7514 25.0386 55.9797 23.8164 57.4895 23.8164ZM47.4498 26.541C47.4498 25.0386 48.6781 23.8164 50.1879 23.8164C51.6976 23.8164 52.926 25.0386 52.926 26.541V33.8066C52.926 35.3091 51.6976 36.5312 50.1879 36.5312C48.6781 36.5312 47.4498 35.3091 47.4498 33.8066V26.541ZM45.6244 29.2656V31.082H30.7778V29.2656H45.6244ZM30.7778 33.8066V32.8984H45.6244V33.8066C45.6244 36.3106 47.6715 38.3477 50.1879 38.3477C51.6791 38.3477 53.0054 37.6321 53.8387 36.5281C54.6719 37.6321 55.9982 38.3477 57.4895 38.3477C58.9807 38.3477 60.307 37.6321 61.1402 36.5281C61.9735 37.6321 63.2998 38.3477 64.791 38.3477C66.2823 38.3477 67.6086 37.6321 68.4418 36.5281C69.2751 37.6321 70.6014 38.3477 72.0926 38.3477C73.1192 38.3477 74.0675 38.0085 74.8307 37.437V41.0748C74.0675 40.5034 73.1192 40.1642 72.0926 40.1642C70.6014 40.1642 69.2751 40.8797 68.4418 41.9837C67.6086 40.8797 66.2823 40.1642 64.791 40.1642C63.2998 40.1642 61.9735 40.8797 61.1402 41.9837C60.307 40.8797 58.9807 40.1642 57.4895 40.1642C54.9731 40.1642 52.926 42.2012 52.926 44.7052V45.6134H38.0794V44.7052C38.0794 42.2012 36.0323 40.1642 33.5159 40.1642C32.0247 40.1642 30.6983 40.8797 29.8651 41.9837C29.0319 40.8796 27.7055 40.1641 26.2143 40.1641C25.1877 40.1641 24.2395 40.5032 23.4762 41.0747V37.437C24.2395 38.0085 25.1877 38.3477 26.2143 38.3477C28.7307 38.3477 30.7778 36.3106 30.7778 33.8066ZM52.926 49.2461H38.0794V47.4297H52.926V49.2461ZM30.7778 44.7051C30.7778 43.2027 32.0062 41.9805 33.5159 41.9805C35.0256 41.9805 36.254 43.2027 36.254 44.7051V51.9707C36.254 53.4731 35.0256 54.6953 33.5159 54.6953C32.0062 54.6953 30.7778 53.4731 30.7778 51.9707V44.7051ZM23.4762 26.541C23.4762 25.0386 24.7046 23.8164 26.2143 23.8164C27.724 23.8164 28.9524 25.0386 28.9524 26.541V33.8066C28.9524 35.3091 27.724 36.5312 26.2143 36.5312C24.7046 36.5312 23.4762 35.3091 23.4762 33.8066V26.541ZM23.4762 44.7051C23.4762 43.2027 24.7046 41.9805 26.2143 41.9805C27.724 41.9805 28.9524 43.2027 28.9524 44.7051V51.9707C28.9524 53.4731 27.724 54.6953 26.2143 54.6953C24.7046 54.6953 23.4762 53.4731 23.4762 51.9707V44.7051ZM26.2143 72.8594C24.7046 72.8594 23.4762 71.6372 23.4762 70.1348V62.8691C23.4762 61.3667 24.7046 60.1445 26.2143 60.1445C27.724 60.1445 28.9524 61.3667 28.9524 62.8691V70.1348C28.9524 71.6372 27.724 72.8594 26.2143 72.8594ZM33.5159 72.8594C32.0062 72.8594 30.7778 71.6372 30.7778 70.1348V62.8691C30.7778 61.3667 32.0062 60.1445 33.5159 60.1445C35.0256 60.1445 36.254 61.3667 36.254 62.8691V70.1348C36.254 71.6372 35.0256 72.8594 33.5159 72.8594ZM40.8175 72.8594C39.3078 72.8594 38.0794 71.6372 38.0794 70.1348V62.8691C38.0794 61.3667 39.3078 60.1445 40.8175 60.1445C42.3272 60.1445 43.5556 61.3667 43.5556 62.8691V70.1348C43.5556 71.6372 42.3272 72.8594 40.8175 72.8594ZM50.8572 70.1348C50.8572 71.6372 49.6288 72.8594 48.1191 72.8594C46.6093 72.8594 45.381 71.6372 45.381 70.1348V62.8691C45.381 61.3667 46.6093 60.1445 48.1191 60.1445C49.6288 60.1445 50.8572 61.3667 50.8572 62.8691V70.1348ZM52.6826 67.4102V65.5938H67.5291V67.4102H52.6826ZM67.5291 62.8691V63.7773H52.6826V62.8691C52.6826 60.3652 50.6354 58.3281 48.1191 58.3281C46.6278 58.3281 45.3015 59.0437 44.4683 60.1477C43.635 59.0437 42.3087 58.3281 40.8175 58.3281C39.3263 58.3281 37.9999 59.0437 37.1667 60.1477C36.3334 59.0437 35.0071 58.3281 33.5159 58.3281C32.0247 58.3281 30.6983 59.0437 29.8651 60.1477C29.0319 59.0437 27.7055 58.3281 26.2143 58.3281C25.1877 58.3281 24.2395 58.6673 23.4762 59.2388V55.6011C24.2395 56.1725 25.1877 56.5117 26.2143 56.5117C27.7055 56.5117 29.0319 55.7962 29.8651 54.6922C30.6983 55.7962 32.0247 56.5117 33.5159 56.5117C36.0323 56.5117 38.0794 54.4747 38.0794 51.9707V51.0625H52.926V51.9707C52.926 54.4747 54.9731 56.5117 57.4895 56.5117C58.9807 56.5117 60.307 55.7962 61.1402 54.6922C61.9735 55.7962 63.2998 56.5117 64.791 56.5117C66.2823 56.5117 67.6086 55.7962 68.4418 54.6922C69.2751 55.7962 70.6014 56.5117 72.0926 56.5117C73.1192 56.5117 74.0675 56.1725 74.8307 55.6011V59.2389C74.0675 58.6674 73.1192 58.3282 72.0926 58.3282C69.5763 58.3281 67.5291 60.3652 67.5291 62.8691ZM72.0926 72.8594C70.5829 72.8594 69.3545 71.6372 69.3545 70.1348V62.8691C69.3545 61.3667 70.5829 60.1445 72.0926 60.1445C73.6024 60.1445 74.8307 61.3667 74.8307 62.8691V70.1348C74.8307 71.6372 73.6024 72.8594 72.0926 72.8594ZM78.4815 82.1836H76.6561V24.7246C76.6561 24.2238 77.0655 23.8164 77.5688 23.8164C78.0722 23.8164 78.4815 24.2238 78.4815 24.7246V82.1836Z" fill="white"/>
</g>
<defs>
<clipPath id="clip0_21_1918">
<rect width="97.8462" height="106" fill="white" transform="translate(0.078125)"/>
</clipPath>
</defs>
</svg>
