<svg width="98" height="106" viewBox="0 0 98 106" fill="none" xmlns="http://www.w3.org/2000/svg">
<g clip-path="url(#clip0_21_1955)">
<mask id="mask0_21_1955" style="mask-type:alpha" maskUnits="userSpaceOnUse" x="0" y="0" width="98" height="106">
<path d="M0.0781251 0H97.9243V103.336C97.9244 103.649 97.8523 103.958 97.7136 104.239C97.575 104.52 97.3735 104.765 97.1247 104.955C96.876 105.145 96.5868 105.276 96.2795 105.336C95.9722 105.397 95.6551 105.386 95.3528 105.304L49.5343 92.8947C49.1852 92.8001 48.8172 92.8001 48.4681 92.8947L2.64964 105.304C2.34734 105.386 2.03023 105.397 1.72292 105.336C1.41561 105.276 1.12637 105.145 0.877656 104.955C0.628939 104.765 0.42743 104.52 0.288771 104.239C0.150112 103.958 0.0780322 103.649 0.0781251 103.336V0Z" fill="#D9C2EC"/>
</mask>
<g mask="url(#mask0_21_1955)">
<path d="M-12.1562 -28.5381H114.16V130.462H-12.1562V-28.5381Z" fill="#BCE3F9"/>
</g>
<path d="M16.6341 44.6367C16.0121 44.6367 15.5078 45.1435 15.5078 45.7685V48.0322C15.5078 48.6572 16.0121 49.164 16.6341 49.164C17.256 49.164 17.7603 48.6572 17.7603 48.0322V45.7685C17.7603 45.1435 17.256 44.6367 16.6341 44.6367Z" fill="white"/>
<path d="M24.5165 37.8454C28.8636 37.8454 32.4002 34.2914 32.4002 29.9227C32.4002 25.554 28.8636 22 24.5165 22C20.1694 22 16.6328 25.554 16.6328 29.9227C16.6328 34.2914 20.1695 37.8454 24.5165 37.8454ZM24.5165 24.2636C27.6216 24.2636 30.1477 26.8022 30.1477 29.9227C30.1477 33.0432 27.6216 35.5818 24.5165 35.5818C21.4114 35.5818 18.8853 33.0432 18.8853 29.9227C18.8853 26.8022 21.4115 24.2636 24.5165 24.2636Z" fill="white"/>
<path d="M49.3915 37.8454C53.7386 37.8454 57.2752 34.2914 57.2752 29.9227C57.2752 25.554 53.7386 22 49.3915 22C45.0444 22 41.5078 25.554 41.5078 29.9227C41.5078 34.2914 45.0444 37.8454 49.3915 37.8454ZM49.3915 24.2636C52.4966 24.2636 55.0227 26.8022 55.0227 29.9227C55.0227 33.0432 52.4966 35.5818 49.3915 35.5818C46.2864 35.5818 43.7603 33.0432 43.7603 29.9227C43.7603 26.8022 46.2864 24.2636 49.3915 24.2636Z" fill="white"/>
<path d="M82.2534 40.1094H66.3859C64.5458 40.1094 62.9091 41.0011 61.881 42.3769C60.8528 41.0011 59.2161 40.1094 57.376 40.1094H41.5086C39.6685 40.1094 38.0319 41.0011 37.0037 42.3769C35.9755 41.0011 34.3388 40.1094 32.4987 40.1094H16.6312C13.5261 40.1094 11 42.648 11 45.7685V61.6139C11 63.4862 12.5156 65.0093 14.3787 65.0093C14.7735 65.0093 15.1525 64.9402 15.505 64.8146V79.1319C15.505 81.3301 17.2846 83.1185 19.4719 83.1185C21.6592 83.1185 23.4388 81.3301 23.4388 79.1319V62.8211H25.6913V79.1318C25.6913 81.3299 27.4709 83.1183 29.6582 83.1183C31.8455 83.1183 33.6251 81.3299 33.6251 79.1318V64.8263C33.976 64.9446 34.3546 65.0093 34.7513 65.0093C35.6361 65.0093 36.4311 64.6912 37.0275 64.1626C37.623 64.6889 38.4029 65.0093 39.2563 65.0093C39.6511 65.0093 40.0301 64.9402 40.3825 64.8146V79.1319C40.3825 81.3301 42.1622 83.1185 44.3495 83.1185C46.5368 83.1185 48.3164 81.3301 48.3164 79.1319V62.8211H50.5689V79.1318C50.5689 81.3299 52.3485 83.1183 54.5358 83.1183C56.7231 83.1183 58.5027 81.3299 58.5027 79.1318V64.8263C58.8536 64.9446 59.2322 65.0093 59.6291 65.0093C60.5023 65.0093 61.2878 64.699 61.8816 64.1826C62.4753 64.6989 63.2608 65.0093 64.134 65.0093C64.5309 65.0093 64.9093 64.9446 65.2603 64.8263V79.1318C65.2603 81.3299 67.0399 83.1183 69.2272 83.1183C71.4145 83.1183 73.1941 81.3299 73.1941 79.1318V62.8211H75.4466V79.1318C75.4466 81.3299 77.2262 83.1183 79.4135 83.1183C81.6008 83.1183 83.3797 81.3299 83.3797 79.1318V64.8146C83.7321 64.9403 84.1111 65.0093 84.5059 65.0093C86.369 65.0093 87.8846 63.4862 87.8846 61.6139V45.7685C87.8846 42.648 85.3586 40.1094 82.2534 40.1094ZM34.7512 62.7457C34.1091 62.7457 33.625 62.2916 33.625 61.6893V45.7685C33.625 45.1434 33.1207 44.6366 32.4987 44.6366C31.8767 44.6366 31.3725 45.1434 31.3725 45.7685V79.1318C31.3725 80.0818 30.6033 80.8547 29.658 80.8547C28.7127 80.8547 27.9436 80.0818 27.9436 79.1318V61.6893C27.9436 61.0643 27.4393 60.5575 26.8174 60.5575H22.3124C21.6904 60.5575 21.1862 61.0643 21.1862 61.6893V79.1318C21.1862 80.0818 20.417 80.8547 19.4717 80.8547C18.5264 80.8547 17.7574 80.0818 17.7574 79.1318V52.2575C17.7574 51.6325 17.2532 51.1257 16.6312 51.1257C16.0092 51.1257 15.505 51.6325 15.505 52.2575V61.6139C15.505 62.238 14.9998 62.7457 14.3787 62.7457C13.7576 62.7457 13.2525 62.238 13.2525 61.6139V45.7685C13.2525 43.8961 14.7681 42.373 16.6312 42.373H32.4987C34.3618 42.373 35.8774 43.8961 35.8774 45.7685V61.6139C35.8774 61.6392 35.8788 61.6641 35.8794 61.6893C35.8774 62.2916 35.3932 62.7457 34.7512 62.7457ZM59.6285 62.7457C58.9864 62.7457 58.5022 62.2916 58.5022 61.6893C58.5021 61.6893 58.5021 45.7685 58.5021 45.7685C58.5021 45.1434 57.9978 44.6366 57.3758 44.6366C56.7539 44.6366 56.2496 45.1434 56.2496 45.7685V79.1318C56.2496 80.0818 55.4805 80.8547 54.5352 80.8547C53.5899 80.8547 52.8207 80.0818 52.8207 79.1318V61.6893C52.8207 61.0643 52.3165 60.5575 51.6945 60.5575H47.1895C46.5676 60.5575 46.0633 61.0643 46.0633 61.6893V79.1318C46.0633 80.0818 45.2941 80.8547 44.3489 80.8547C43.4036 80.8547 42.6344 80.0818 42.6344 79.1318V45.7685C42.6344 45.1434 42.1302 44.6366 41.5082 44.6366C40.8862 44.6366 40.3819 45.1434 40.3819 45.7685V61.6139C40.3819 62.238 39.8766 62.7457 39.2557 62.7457C38.6346 62.7457 38.1295 62.238 38.1295 61.6139V45.7685C38.1295 43.8961 39.6451 42.373 41.5082 42.373H57.3757C59.2388 42.373 60.7544 43.8961 60.7544 45.7685V61.6893C60.7547 62.2916 60.2706 62.7457 59.6285 62.7457ZM85.6321 61.6139C85.6321 62.238 85.127 62.7457 84.5059 62.7457C83.8848 62.7457 83.3797 62.238 83.3797 61.6139V45.7685C83.3797 45.1434 82.8754 44.6366 82.2534 44.6366C81.6314 44.6366 81.1272 45.1434 81.1272 45.7685V79.1318C81.1272 80.0818 80.358 80.8547 79.4128 80.8547C78.4675 80.8547 77.6983 80.0818 77.6983 79.1318V61.6893C77.6983 61.0643 77.1941 60.5575 76.5721 60.5575H72.0671C71.4451 60.5575 70.9409 61.0643 70.9409 61.6893V79.1318C70.9409 80.0818 70.1717 80.8547 69.2264 80.8547C68.2812 80.8547 67.512 80.0818 67.512 79.1318V45.7685C67.512 45.1434 67.0077 44.6366 66.3858 44.6366C65.7638 44.6366 65.2595 45.1434 65.2595 45.7685V61.6893C65.2595 62.2916 64.7752 62.7457 64.1333 62.7457C63.4913 62.7457 63.007 62.2916 63.007 61.6893V45.7685C63.007 43.8961 64.5227 42.373 66.3858 42.373H82.2534C84.1165 42.373 85.6321 43.8961 85.6321 45.7685V61.6139Z" fill="white"/>
<path d="M74.3681 37.8454C78.7152 37.8454 82.2517 34.2914 82.2517 29.9227C82.2517 25.554 78.7152 22 74.3681 22C70.0209 22 66.4844 25.554 66.4844 29.9227C66.4844 34.2914 70.0209 37.8454 74.3681 37.8454ZM74.3681 24.2636C77.4732 24.2636 79.9993 26.8022 79.9993 29.9227C79.9993 33.0432 77.4732 35.5818 74.3681 35.5818C71.2629 35.5818 68.7369 33.0432 68.7369 29.9227C68.7369 26.8022 71.2629 24.2636 74.3681 24.2636Z" fill="white"/>
</g>
<defs>
<clipPath id="clip0_21_1955">
<rect width="97.8462" height="106" fill="white" transform="translate(0.078125)"/>
</clipPath>
</defs>
</svg>
