<svg width="98" height="106" viewBox="0 0 98 106" fill="none" xmlns="http://www.w3.org/2000/svg">
<g clip-path="url(#clip0_21_3118)">
<mask id="mask0_21_3118" style="mask-type:alpha" maskUnits="userSpaceOnUse" x="0" y="0" width="98" height="106">
<path d="M0.0781251 0H97.9243V103.336C97.9244 103.649 97.8523 103.958 97.7136 104.239C97.575 104.52 97.3735 104.765 97.1247 104.955C96.876 105.145 96.5868 105.276 96.2795 105.336C95.9722 105.397 95.6551 105.386 95.3528 105.304L49.5343 92.8947C49.1852 92.8001 48.8172 92.8001 48.4681 92.8947L2.64964 105.304C2.34734 105.386 2.03023 105.397 1.72292 105.336C1.41561 105.276 1.12637 105.145 0.877656 104.955C0.628939 104.765 0.42743 104.52 0.288771 104.239C0.150112 103.958 0.0780322 103.649 0.0781251 103.336V0Z" fill="#D9C2EC"/>
</mask>
<g mask="url(#mask0_21_3118)">
<path d="M-12.1562 -28.5381H114.16V130.462H-12.1562V-28.5381Z" fill="#F77701"/>
</g>
<path d="M24 42V75.7143C24 76.3205 24.2347 76.9019 24.6524 77.3305C25.07 77.7592 25.6366 78 26.2273 78H39.5909V58.5714C39.5909 57.6621 39.9429 56.79 40.5694 56.1471C41.196 55.5041 42.0458 55.1429 42.9318 55.1429H54.0682C54.9542 55.1429 55.804 55.5041 56.4306 56.1471C57.0571 56.79 57.4091 57.6621 57.4091 58.5714V78H70.7727C71.3634 78 71.93 77.7592 72.3476 77.3305C72.7653 76.9019 73 76.3205 73 75.7143V42" stroke="white" stroke-width="4" stroke-linecap="round" stroke-linejoin="round"/>
<path d="M80 48L50.0314 19.5553C49.3283 18.8191 47.6844 18.8107 46.9686 19.5553L17 48M68.75 37.2635V21.2285H62V30.8495" stroke="white" stroke-width="4" stroke-linecap="round" stroke-linejoin="round"/>
</g>
<defs>
<clipPath id="clip0_21_3118">
<rect width="97.8462" height="106" fill="white" transform="translate(0.078125)"/>
</clipPath>
</defs>
</svg>
