<svg width="98" height="106" viewBox="0 0 98 106" fill="none" xmlns="http://www.w3.org/2000/svg">
<g clip-path="url(#clip0_21_1661)">
<mask id="mask0_21_1661" style="mask-type:alpha" maskUnits="userSpaceOnUse" x="0" y="0" width="98" height="106">
<path d="M0.0781251 0H97.9243V103.336C97.9244 103.649 97.8523 103.958 97.7136 104.239C97.575 104.52 97.3735 104.765 97.1247 104.955C96.876 105.145 96.5868 105.276 96.2795 105.336C95.9722 105.397 95.6551 105.386 95.3528 105.304L49.5343 92.8947C49.1852 92.8001 48.8172 92.8001 48.4681 92.8947L2.64964 105.304C2.34734 105.386 2.03023 105.397 1.72292 105.336C1.41561 105.276 1.12637 105.145 0.877656 104.955C0.628939 104.765 0.42743 104.52 0.288771 104.239C0.150112 103.958 0.0780322 103.649 0.0781251 103.336V0Z" fill="#D9C2EC"/>
</mask>
<g mask="url(#mask0_21_1661)">
<path d="M-12.1562 -28.5381H114.16V130.462H-12.1562V-28.5381Z" fill="#89DE09"/>
</g>
<path d="M38.0722 63.3973C38.5737 63.3973 38.9803 62.9907 38.9803 62.4892C38.9803 61.9876 38.5737 61.5811 38.0722 61.5811C37.5706 61.5811 37.1641 61.9876 37.1641 62.4892C37.1641 62.9907 37.5706 63.3973 38.0722 63.3973Z" fill="white"/>
<path d="M38.6191 67.0301C39.1206 67.0301 39.5272 66.6235 39.5272 66.122C39.5272 65.6204 39.1206 65.2139 38.6191 65.2139C38.1175 65.2139 37.7109 65.6204 37.7109 66.122C37.7109 66.6235 38.1175 67.0301 38.6191 67.0301Z" fill="white"/>
<path d="M57.8612 70.7254C58.3628 70.7254 58.7694 70.3188 58.7694 69.8173C58.7694 69.3158 58.3628 68.9092 57.8612 68.9092C57.3597 68.9092 56.9531 69.3158 56.9531 69.8173C56.9531 70.3188 57.3597 70.7254 57.8612 70.7254Z" fill="white"/>
<path d="M34.0755 49.4617L45.0993 38.4378C47.6722 35.8649 49.0892 32.4442 49.0892 28.8056V17.9081C49.0892 17.4065 48.6826 17 48.181 17H27.5361C27.2214 17 26.9291 17.163 26.7636 17.4307C26.5981 17.6985 26.5831 18.0328 26.7239 18.3144C27.7527 20.372 27.7803 22.7461 26.7996 24.8273C26.5857 25.281 26.7802 25.8221 27.2339 26.0358C27.6877 26.2499 28.2286 26.0552 28.4425 25.6015C29.4581 23.4463 29.6042 21.0388 28.886 18.8162H47.2728V28.8056C47.2728 31.959 46.0448 34.9236 43.815 37.1533L32.7853 48.183C32.7813 48.187 32.7773 48.1911 32.7733 48.1952C32.2521 48.7365 31.5532 49.0346 30.8055 49.0346C29.3032 49.0346 28.0811 47.8124 28.0811 46.3102C28.0811 45.5824 28.3644 44.8983 28.879 44.3838L36.3297 36.9332C37.5303 35.7325 38.1916 34.1362 38.1916 32.4382C38.1916 31.9366 37.785 31.5301 37.2834 31.5301C36.7819 31.5301 36.3753 31.9366 36.3753 32.4382C36.3753 33.6511 35.9031 34.7913 35.0455 35.6489L27.5948 43.0995C26.7372 43.9571 26.265 45.0973 26.265 46.3103V66.0844C26.265 67.5877 25.0774 68.8432 23.6179 68.8833C22.8737 68.9036 22.1725 68.6298 21.6411 68.1128C21.1091 67.5954 20.8162 66.9019 20.8162 66.16V43.2064C20.8162 42.2755 21.026 41.3383 21.4229 40.4963L26.894 28.8873C27.1078 28.4336 26.9134 27.8925 26.4597 27.6788C26.006 27.4649 25.4649 27.6593 25.2512 28.1131L19.7799 39.722C19.2697 40.8045 19 42.0095 19 43.2063V66.1597C19 67.3961 19.4881 68.552 20.3744 69.4143C21.2297 70.2465 22.349 70.7004 23.5389 70.7004C23.5817 70.7004 23.6246 70.6998 23.6676 70.6985C25.7965 70.6402 27.5783 69.0488 27.991 66.9927C30.1055 66.6062 31.7137 64.7517 31.7137 62.5272V50.7606C32.6072 50.5806 33.4245 50.1349 34.0755 49.4617ZM28.0811 65.0954V49.9402C28.6094 50.3377 29.2267 50.6227 29.8974 50.7594V62.5272C29.8974 63.7111 29.1382 64.7205 28.0811 65.0954Z" fill="white"/>
<path d="M80.2155 39.722L73.1958 24.8273C72.2149 22.746 72.2427 20.372 73.2715 18.3144C73.4123 18.0328 73.3972 17.6985 73.2318 17.4307C73.0664 17.163 72.7741 17 72.4593 17H51.8144C51.3127 17 50.9062 17.4065 50.9062 17.9081V28.8056C50.9062 32.4442 52.3232 35.8649 54.8959 38.4378L65.9199 49.4617C66.5708 50.135 67.3882 50.5806 68.2817 50.7606V62.5272C68.2817 64.7517 69.8899 66.6062 72.0044 66.9927C72.4173 69.0488 74.199 70.6403 76.3278 70.6985C76.3708 70.6998 76.4137 70.7004 76.4565 70.7004C77.6461 70.7004 78.7655 70.2465 79.6209 69.4143C80.5072 68.552 80.9954 67.3961 80.9954 66.1597V43.2064C80.9954 42.0095 80.7257 40.8046 80.2155 39.722ZM70.0979 62.5272V50.7591C70.7685 50.6224 71.386 50.3378 71.9142 49.9405V65.0954C70.8572 64.7205 70.0979 63.7111 70.0979 62.5272ZM79.1792 66.1597C79.1792 66.9016 78.8863 67.5951 78.3543 68.1126C77.8227 68.6297 77.1175 68.9012 76.3777 68.883C74.9179 68.8429 73.7304 67.5874 73.7304 66.0842V46.3101C73.7304 45.097 73.2581 43.9567 72.4006 43.0992L64.95 35.6486C64.0923 34.7911 63.6201 33.6509 63.6201 32.438C63.6201 31.9363 63.2136 31.5299 62.712 31.5299C62.2103 31.5299 61.8039 31.9363 61.8039 32.438C61.8039 34.1359 62.4651 35.7323 63.6656 36.9329L71.1164 44.3836C71.6308 44.898 71.9143 45.5822 71.9143 46.31C71.9143 47.8121 70.6921 49.0344 69.1899 49.0344C68.4422 49.0344 67.7433 48.7362 67.222 48.195C67.2181 48.191 67.2142 48.1869 67.2101 48.1828L56.1804 37.1531C53.9505 34.9233 52.7225 31.9587 52.7225 28.8054V18.8162H71.1093C70.3912 21.0388 70.5373 23.4463 71.553 25.6015L78.5726 40.4963C78.9694 41.3383 79.1793 42.2754 79.1793 43.2064V66.1597H79.1792Z" fill="white"/>
<path d="M49.9986 46.0654C40.9184 46.0654 33.5312 53.4527 33.5312 62.5327C33.5312 71.6128 40.9184 79 49.9986 79C59.0786 79 66.4659 71.6128 66.4659 62.5327C66.4659 53.4527 59.0787 46.0654 49.9986 46.0654ZM49.9986 77.1838C41.9199 77.1838 35.3475 70.6114 35.3475 62.5327C35.3475 54.4541 41.9199 47.8817 49.9986 47.8817C50.1452 47.8817 50.2912 47.8845 50.4368 47.8888C49.8431 48.4999 49.4187 49.2763 49.2421 50.1421H47.0909C45.5887 50.1422 44.3666 51.3645 44.3666 52.8665C44.3666 54.3687 45.5887 55.5909 47.091 55.5909H51.8149C52.3156 55.5909 52.7229 55.9982 52.7229 56.4989C52.7229 56.7414 52.6285 56.9696 52.4569 57.141C52.2854 57.3125 52.0574 57.4069 51.8148 57.4069C51.8148 57.4069 46.0014 57.4062 46.0005 57.4062C44.6429 57.4062 43.3663 57.9348 42.4063 58.8948C41.446 59.855 40.9172 61.1317 40.9172 62.4895C40.9172 63.9332 41.5331 65.312 42.6079 66.2752L44.8551 68.4202V70.2241C44.8551 73.0602 47.1624 75.3675 49.9984 75.3675C52.8346 75.3675 55.1419 73.0602 55.1419 70.2241V67.0014C56.9187 66.6384 58.3213 65.2322 58.6826 63.451H60.6813C61.0272 65.1401 62.3182 66.4895 63.9767 66.9247C62.1066 72.8641 56.5478 77.1838 49.9986 77.1838ZM64.4131 65.161C63.258 64.8464 62.4061 63.7922 62.4061 62.5429C62.4061 62.0413 61.9996 61.6348 61.4979 61.6348H57.8654C57.3638 61.6348 56.9573 62.0413 56.9573 62.5429C56.9573 64.0503 55.7356 65.2766 54.2339 65.2766C53.7323 65.2766 53.3258 65.6831 53.3258 66.1847V70.2241C53.3258 72.0586 51.8332 73.5513 49.9986 73.5513C48.1639 73.5513 46.6714 72.0587 46.6714 70.2241V68.0316C46.6714 67.7834 46.5698 67.5461 46.3904 67.3747L43.8514 64.951C43.8438 64.9436 43.8361 64.9366 43.8283 64.9296C43.1327 64.3102 42.7337 63.4209 42.7337 62.4895C42.7337 61.6167 43.0736 60.7963 43.6907 60.1791C44.3079 59.5621 45.1281 59.2224 46.0014 59.2224C46.0014 59.2224 51.8148 59.2232 51.8152 59.2232C52.5427 59.2232 53.2267 58.9398 53.7414 58.4253C54.256 57.9107 54.5394 57.2266 54.5394 56.4989C54.5394 54.9968 53.3173 53.7747 51.8152 53.7747H47.0911C46.5903 53.7747 46.183 53.3673 46.183 52.8665C46.183 52.3657 46.5904 51.9584 47.0911 51.9583H50.0591C50.5607 51.9583 50.9672 51.5518 50.9672 51.0502C50.9672 49.581 52.1365 48.3805 53.5931 48.3284C59.9395 49.9351 64.6496 55.694 64.6496 62.5327C64.6496 63.4297 64.5682 64.3081 64.4131 65.161Z" fill="white"/>
</g>
<defs>
<clipPath id="clip0_21_1661">
<rect width="97.8462" height="106" fill="white" transform="translate(0.078125)"/>
</clipPath>
</defs>
</svg>
