<svg width="98" height="106" viewBox="0 0 98 106" fill="none" xmlns="http://www.w3.org/2000/svg">
<g clip-path="url(#clip0_21_1900)">
<mask id="mask0_21_1900" style="mask-type:alpha" maskUnits="userSpaceOnUse" x="0" y="0" width="98" height="106">
<path d="M0.0781251 0H97.9243V103.336C97.9244 103.649 97.8523 103.958 97.7136 104.239C97.575 104.52 97.3735 104.765 97.1247 104.955C96.876 105.145 96.5868 105.276 96.2795 105.336C95.9722 105.397 95.6551 105.386 95.3528 105.304L49.5343 92.8947C49.1852 92.8001 48.8172 92.8001 48.4681 92.8947L2.64964 105.304C2.34734 105.386 2.03023 105.397 1.72292 105.336C1.41561 105.276 1.12637 105.145 0.877656 104.955C0.628939 104.765 0.42743 104.52 0.288771 104.239C0.150112 103.958 0.0780322 103.649 0.0781251 103.336V0Z" fill="#D9C2EC"/>
</mask>
<g mask="url(#mask0_21_1900)">
<path d="M-12.1562 -28.5381H114.16V130.462H-12.1562V-28.5381Z" fill="#FCC900"/>
</g>
<path d="M78.6773 50.6639L75.0704 48.4999C74.8481 48.3663 74.6978 48.1529 74.6472 47.8984C74.5966 47.644 74.6538 47.3894 74.8082 47.1808L77.3123 43.8012C77.8873 43.0251 78.0099 42.029 77.6402 41.1367C77.2705 40.2445 76.4796 39.6268 75.5243 39.4847L71.3638 38.8657C71.1074 38.8276 70.8868 38.6877 70.7427 38.4721C70.5986 38.2565 70.5538 37.9991 70.6168 37.7475L71.637 33.6668C71.8712 32.7298 71.6034 31.7626 70.9204 31.0797C70.2374 30.3966 69.2702 30.129 68.3332 30.3631L64.2526 31.3833C64.0011 31.4466 63.7439 31.4015 63.5281 31.2575C63.3126 31.1134 63.1726 30.8928 63.1344 30.6363L62.5154 26.4759C62.3734 25.5204 61.7558 24.7295 60.8633 24.3599C59.9712 23.9902 58.975 24.1126 58.199 24.6878L54.8193 27.192C54.6109 27.3464 54.3562 27.4038 54.1017 27.3529C53.8473 27.3023 53.6338 27.1521 53.5003 26.9297L51.3361 23.3227C50.8392 22.4944 49.9658 22 49 22C48.0342 22 47.1608 22.4944 46.6639 23.3227L44.4999 26.9296C44.3663 27.1519 44.1529 27.3022 43.8984 27.3528C43.644 27.4036 43.3892 27.3463 43.1808 27.1919L39.8011 24.6877C39.025 24.1127 38.0288 23.9899 37.1368 24.3598C36.2445 24.7293 35.6268 25.5203 35.4847 26.4757L34.8657 30.6362C34.8276 30.8926 34.6877 31.1132 34.4721 31.2573C34.2564 31.4014 33.9989 31.4463 33.7475 31.3832L29.6668 30.363C28.7296 30.1288 27.7626 30.3966 27.0797 31.0796C26.3969 31.7626 26.1289 32.7296 26.3631 33.6668L27.3833 37.7474C27.4463 37.999 27.4015 38.2564 27.2574 38.472C27.1134 38.6876 26.8928 38.8274 26.6363 38.8656L22.4759 39.4846C21.5206 39.6266 20.7296 40.2442 20.3599 41.1366C19.9902 42.0289 20.1128 43.025 20.6878 43.8011L23.192 47.1808C23.3463 47.3892 23.4036 47.6439 23.3529 47.8983C23.3023 48.1527 23.1521 48.3662 22.9297 48.4997L19.3227 50.6639C18.4944 51.1609 18 52.0342 18 53C18 53.9658 18.4944 54.8392 19.3227 55.3361L22.9296 57.5001C23.1519 57.6337 23.3022 57.8471 23.3528 58.1016C23.4034 58.356 23.3462 58.6106 23.1918 58.8192L20.6877 62.1989C20.1127 62.9749 19.9901 63.971 20.3598 64.8632C20.7293 65.7555 21.5203 66.3732 22.4757 66.5153L26.636 67.1343C26.8926 67.1724 27.1132 67.3124 27.2574 67.528C27.4014 67.7436 27.4462 68.001 27.3832 68.2525L26.363 72.3332C26.1288 73.2702 26.3966 74.2374 27.0796 74.9203C27.7626 75.6031 28.7295 75.8707 29.6668 75.6369L33.7474 74.6167C33.9993 74.5536 34.2564 74.5985 34.472 74.7426C34.6876 74.8866 34.8274 75.1072 34.8656 75.3637L35.4846 79.5241C35.6266 80.4796 36.2442 81.2705 37.1367 81.6401C38.0287 82.0096 39.0249 81.8872 39.801 81.3122L43.1807 78.808C43.3891 78.6536 43.6438 78.5964 43.8983 78.6471C44.1527 78.6977 44.3662 78.8479 44.4997 79.0703L46.6639 82.6773C47.1609 83.5056 48.0342 84 49 84C49.9658 84 50.8392 83.5056 51.3361 82.6773L53.5001 79.0704C53.6337 78.8481 53.8471 78.6978 54.1016 78.6472C54.356 78.5963 54.6106 78.6537 54.8192 78.8081L58.1989 81.3123C58.9749 81.8873 59.971 82.0097 60.8632 81.6402C61.7555 81.2707 62.3732 80.4797 62.5153 79.5243L63.1343 75.364C63.1724 75.1074 63.3124 74.8868 63.528 74.7426C63.7436 74.5985 64.0007 74.5535 64.2525 74.6168L68.3332 75.637C69.2701 75.871 70.2373 75.6032 70.9203 74.9204C71.6032 74.2374 71.8711 73.2704 71.6369 72.3332L70.6167 68.2526C70.5537 68.0011 70.5985 67.7438 70.7425 67.5281C70.8866 67.3126 71.1072 67.1726 71.3637 67.1344L75.5241 66.5154C76.4796 66.3734 77.2705 65.7558 77.6401 64.8633C78.0098 63.9711 77.8872 62.975 77.3122 62.199L74.808 58.8192C74.6537 58.6108 74.5964 58.3561 74.6471 58.1017C74.6977 57.8473 74.8479 57.6338 75.0703 57.5003L78.6773 55.3361C79.5056 54.8392 80 53.9658 80 53C80 52.0342 79.5056 51.1609 78.6773 50.6639ZM77.7428 53.7785L74.1359 55.9427C73.4781 56.3373 73.0152 56.995 72.8656 57.7472C72.7161 58.4995 72.8922 59.2843 73.3487 59.9004L75.8528 63.2801C76.129 63.6529 76.0213 64.0252 75.9621 64.168C75.9029 64.3109 75.7158 64.6502 75.257 64.7186L71.0965 65.3376C70.3378 65.4506 69.6584 65.8811 69.2322 66.5189C68.8062 67.1566 68.6685 67.949 68.8545 68.693L69.8747 72.7735C69.9874 73.2237 69.7453 73.5265 69.6359 73.6358C69.5266 73.7449 69.223 73.9875 68.7738 73.8746L64.6931 72.8544C63.949 72.6687 63.1566 72.8063 62.519 73.2321C61.8812 73.6582 61.4507 74.3377 61.3378 75.0965L60.7187 79.2569C60.6504 79.7157 60.311 79.9028 60.1681 79.962C60.0252 80.021 59.653 80.1289 59.2803 79.8527L55.9005 77.3484C55.2843 76.8918 54.4992 76.7156 53.7474 76.8655C52.9951 77.0151 52.3373 77.4781 51.9427 78.1358L49.7788 81.7426C49.54 82.1405 49.1548 82.1835 49.0001 82.1835C48.8455 82.1835 48.4603 82.1406 48.2216 81.7427L46.0574 78.1358C45.6628 77.478 45.0051 77.0151 44.2529 76.8655C44.0773 76.8305 43.8999 76.8133 43.7232 76.8133C43.1434 76.8133 42.572 76.9985 42.0997 77.3484L38.72 79.8527C38.3474 80.1289 37.9749 80.0211 37.8321 79.962C37.6892 79.9028 37.3499 79.7157 37.2815 79.2569L36.6625 75.0965C36.5496 74.3378 36.1193 73.6584 35.4815 73.2322C34.8438 72.8062 34.0512 72.6687 33.3071 72.8544L29.2266 73.8746C28.7765 73.9876 28.4735 73.7451 28.3643 73.6358C28.2551 73.5265 28.013 73.2237 28.1255 72.7736L29.1457 68.693C29.3317 67.9489 29.1939 67.1566 28.768 66.5189C28.3419 65.8811 27.6624 65.4506 26.9037 65.3376L22.7432 64.7186C22.2844 64.6503 22.0973 64.3109 22.0381 64.168C21.979 64.0252 21.8712 63.6529 22.1475 63.2801L24.6514 59.9005C25.1081 59.2843 25.2843 58.4995 25.1346 57.7472C24.9849 56.995 24.522 56.3372 23.8643 55.9426L20.2576 53.7786C19.8593 53.5398 19.8164 53.1545 19.8164 53C19.8164 52.8455 19.8593 52.4602 20.2572 52.2215L23.8641 50.0573C24.5219 49.6627 24.9848 49.005 25.1344 48.2528C25.2839 47.5005 25.1078 46.7157 24.6513 46.0996L22.1472 42.72C21.871 42.3471 21.9787 41.9748 22.038 41.832C22.0971 41.6891 22.2842 41.3498 22.743 41.2814L26.9034 40.6624C27.6621 40.5495 28.3415 40.1191 28.7677 39.4813C29.1938 38.8435 29.3315 38.0511 29.1455 37.307L28.1253 33.2265C28.0126 32.7763 28.2547 32.4735 28.3641 32.3642C28.4733 32.2549 28.7769 32.0128 29.2262 32.1254L33.3069 33.1456C34.051 33.3313 34.8433 33.1938 35.4812 32.7678C36.119 32.3416 36.5494 31.6622 36.6622 30.9035L37.2813 26.7431C37.3496 26.2843 37.689 26.0972 37.8319 26.038C37.9745 25.979 38.3468 25.871 38.7197 26.1473L42.0995 28.6516C42.7157 29.1081 43.5006 29.2845 44.2526 29.1345C45.0049 28.9849 45.6627 28.5219 46.0573 27.8642L48.2212 24.2574C48.4602 23.8593 48.8455 23.8164 49 23.8164C49.1545 23.8164 49.5398 23.8593 49.7785 24.2572L51.9427 27.8641C52.3373 28.5219 52.995 28.9848 53.7472 29.1344C54.499 29.2842 55.2842 29.1078 55.9004 28.6514L59.2801 26.1472C59.6529 25.871 60.0252 25.9788 60.168 26.0379C60.3109 26.0971 60.6502 26.2842 60.7186 26.743L61.3376 30.9035C61.4506 31.6622 61.8811 32.3416 62.5189 32.7678C63.1566 33.1939 63.9488 33.3317 64.693 33.1455L68.7735 32.1253C69.2236 32.0125 69.5265 32.2547 69.6358 32.3641C69.7451 32.4734 69.9871 32.7761 69.8746 33.2262L68.8544 37.3069C68.6684 38.0511 68.8062 38.8434 69.2322 39.4812C69.6582 40.119 70.3378 40.5494 71.0965 40.6622L75.2569 41.2813C75.7157 41.3496 75.9028 41.689 75.9619 41.8319C76.0211 41.9747 76.1289 42.347 75.8527 42.7199L73.3487 46.0994C72.892 46.7156 72.7158 47.5004 72.8655 48.2526C73.0152 49.0049 73.4781 49.6627 74.1358 50.0573L77.7426 52.2212C78.1405 52.46 78.1835 52.8452 78.1835 52.9999C78.1835 53.1545 78.1407 53.5398 77.7428 53.7785Z" fill="white"/>
<path d="M39.2439 62.1713C41.9856 64.413 45.4491 65.6475 48.9968 65.6475C52.5443 65.6475 56.008 64.413 58.7495 62.1713C61.4526 59.9613 63.3426 56.8745 64.0712 53.4797C64.2779 52.5168 63.9665 51.5465 63.238 50.8841C62.514 50.2256 61.525 50.0087 60.5921 50.3031C53.0064 52.7023 44.9872 52.7023 37.4011 50.3032C36.4685 50.0078 35.4796 50.2252 34.7553 50.884C34.0268 51.5463 33.7153 52.5167 33.922 53.4797C34.6508 56.8745 36.5408 59.9613 39.2439 62.1713ZM43.1637 62.5001C44.9769 61.6385 46.9652 61.1866 48.9968 61.1866C51.0284 61.1866 53.0166 61.6384 54.8299 62.5001C53.046 63.3538 51.063 63.8311 48.9968 63.8311C46.9305 63.8311 44.9475 63.3538 43.1637 62.5001ZM58.6449 52.7364C58.4612 53.445 58.2001 54.1296 57.8622 54.7841C54.9417 55.417 51.9614 55.7375 48.9968 55.7375C46.0321 55.7375 43.0518 55.417 40.1313 54.7841C39.7933 54.1297 39.5321 53.445 39.3485 52.7364C45.7058 54.3115 52.2879 54.3114 58.6449 52.7364ZM35.9775 52.2279C36.0669 52.1465 36.2774 51.9906 36.575 51.9906C36.6608 51.9906 36.7541 52.0035 36.8535 52.0351C37.0277 52.0902 37.2026 52.1426 37.3772 52.1953C37.604 53.5457 38.0614 54.8328 38.7406 56.0295C38.8667 56.2516 39.0805 56.4104 39.3295 56.4669C42.5092 57.1881 45.7616 57.5539 48.9968 57.5539C52.2319 57.5539 55.4844 57.1881 58.664 56.4669C58.9131 56.4103 59.1269 56.2516 59.2529 56.0295C59.932 54.8329 60.3893 53.5457 60.6162 52.1953C60.7909 52.1426 60.9657 52.0903 61.1399 52.0351C61.5847 51.894 61.9008 52.123 62.0159 52.2279C62.1333 52.3345 62.3952 52.6329 62.2953 53.0984C61.5507 56.5676 59.4801 59.505 56.6895 61.4253C54.356 60.0796 51.7099 59.3702 48.9968 59.3702C46.2837 59.3702 43.6375 60.0796 41.3039 61.4253C38.5133 59.505 36.4427 56.5676 35.6983 53.0984C35.5982 52.6329 35.8603 52.3345 35.9775 52.2279Z" fill="white"/>
<path d="M40.0137 48.7637C41.516 48.7637 42.7383 47.5414 42.7383 46.0391C42.7383 44.5368 41.516 43.3145 40.0137 43.3145C38.5114 43.3145 37.2891 44.5368 37.2891 46.0391C37.2891 47.5414 38.5114 48.7637 40.0137 48.7637ZM40.0137 45.1309C40.5145 45.1309 40.9219 45.5382 40.9219 46.0391C40.9219 46.5399 40.5145 46.9473 40.0137 46.9473C39.5128 46.9473 39.1055 46.5399 39.1055 46.0391C39.1055 45.5382 39.5128 45.1309 40.0137 45.1309Z" fill="white"/>
<path d="M60.7148 46.0391C60.7148 44.5368 59.4925 43.3145 57.9902 43.3145C56.4879 43.3145 55.2656 44.5368 55.2656 46.0391C55.2656 47.5414 56.4879 48.7637 57.9902 48.7637C59.4925 48.7637 60.7148 47.5414 60.7148 46.0391ZM57.082 46.0391C57.082 45.5382 57.4894 45.1309 57.9902 45.1309C58.4911 45.1309 58.8984 45.5382 58.8984 46.0391C58.8984 46.5399 58.4911 46.9473 57.9902 46.9473C57.4894 46.9473 57.082 46.5398 57.082 46.0391Z" fill="white"/>
<path d="M49.002 30.5371C43.7029 30.5371 38.5576 32.4188 34.5137 35.8354C34.1306 36.1591 34.0822 36.7321 34.406 37.1152C34.7297 37.4985 35.3029 37.5466 35.6858 37.2228C39.4025 34.0827 44.1314 32.3535 49.002 32.3535C60.3865 32.3535 69.6484 41.6155 69.6484 53C69.6484 64.3845 60.3865 73.6465 49.002 73.6465C37.6174 73.6465 28.3555 64.3845 28.3555 53C28.3555 48.1294 30.0847 43.4004 33.2248 39.684C33.5486 39.3009 33.5003 38.7279 33.1172 38.4042C32.7339 38.0803 32.1611 38.1288 31.8374 38.5117C28.4207 42.5555 26.5391 47.7008 26.5391 53C26.5391 65.3861 36.6159 75.4629 49.002 75.4629C61.388 75.4629 71.4648 65.3861 71.4648 53C71.4648 40.6139 61.388 30.5371 49.002 30.5371Z" fill="white"/>
</g>
<defs>
<clipPath id="clip0_21_1900">
<rect width="97.8462" height="106" fill="white" transform="translate(0.078125)"/>
</clipPath>
</defs>
</svg>
