<svg width="98" height="106" viewBox="0 0 98 106" fill="none" xmlns="http://www.w3.org/2000/svg">
<g clip-path="url(#clip0_21_1937)">
<mask id="mask0_21_1937" style="mask-type:alpha" maskUnits="userSpaceOnUse" x="0" y="0" width="98" height="106">
<path d="M0.0781251 0H97.9243V103.336C97.9244 103.649 97.8523 103.958 97.7136 104.239C97.575 104.52 97.3735 104.765 97.1247 104.955C96.876 105.145 96.5868 105.276 96.2795 105.336C95.9722 105.397 95.6551 105.386 95.3528 105.304L49.5343 92.8947C49.1852 92.8001 48.8172 92.8001 48.4681 92.8947L2.64964 105.304C2.34734 105.386 2.03023 105.397 1.72292 105.336C1.41561 105.276 1.12637 105.145 0.877656 104.955C0.628939 104.765 0.42743 104.52 0.288771 104.239C0.150112 103.958 0.0780322 103.649 0.0781251 103.336V0Z" fill="#D9C2EC"/>
</mask>
<g mask="url(#mask0_21_1937)">
<path d="M-12.1562 -28.5381H114.16V130.462H-12.1562V-28.5381Z" fill="#F77701"/>
</g>
<path d="M38.3057 76.6172H60.4541C60.9638 76.6172 61.377 76.2041 61.377 75.6943V64.6201C61.377 64.1103 60.9638 63.6973 60.4541 63.6973H38.3057C37.796 63.6973 37.3828 64.1103 37.3828 64.6201V75.6943C37.3828 76.2041 37.796 76.6172 38.3057 76.6172ZM39.2285 74.7715V69.2344H59.5312V74.7715H39.2285ZM59.5312 65.543V67.3887H39.2285V65.543H59.5312Z" fill="white"/>
<path d="M65.0684 78.5555V60.9287C65.0684 60.4189 64.6552 60.0059 64.1455 60.0059H58.6101C57.3868 60.0059 56.2936 59.1855 55.9518 58.0109L53.8087 50.6473L56.4858 52.0547C57.4255 52.5487 58.5427 52.468 59.4017 51.844C60.2605 51.2201 60.6826 50.1824 60.5032 49.136L59.1461 41.2232L64.1524 36.3433C65.0531 35.4653 65.3712 34.1768 64.9825 32.9805C64.5938 31.7841 63.579 30.9285 62.3343 30.7477L55.4158 29.7422L51.8628 22.5431C51.3928 21.5915 50.4414 21 49.3799 21C48.3184 21 47.367 21.5915 46.897 22.5434L43.3441 29.7426L36.4256 30.7479C35.1808 30.9288 34.166 31.7843 33.7774 32.9807C33.3887 34.1771 33.7068 35.4655 34.6075 36.3436L39.6137 41.2235L38.2566 49.1363C38.0772 50.1827 38.4992 51.2203 39.3581 51.8443C39.8434 52.1968 40.4111 52.376 40.9828 52.3758C41.4228 52.3758 41.8652 52.2698 42.2738 52.0549L44.9511 50.6475L42.8079 58.0111C42.4661 59.1855 41.373 60.0059 40.1496 60.0059H34.6143C34.1046 60.0059 33.6914 60.4189 33.6914 60.9287V78.5555C31.5879 78.9844 30 80.8489 30 83.0771C30 83.5869 30.4132 84 30.9229 84H67.8369C68.3466 84 68.7598 83.5869 68.7598 83.0771C68.7598 80.8489 67.1718 78.9844 65.0684 78.5555ZM41.4149 50.421C41.097 50.5881 40.7335 50.562 40.4429 50.3509C40.1522 50.1397 40.0149 49.8022 40.0757 49.4481L41.5148 41.0573C41.5662 40.7579 41.467 40.4525 41.2494 40.2405L35.8959 35.0219C35.496 34.632 35.3602 34.0821 35.5328 33.5509C35.7054 33.0198 36.1384 32.6548 36.6912 32.5743L44.0896 31.4993C44.3902 31.4558 44.65 31.2669 44.7845 30.9945L48.5521 23.3602C48.7111 23.038 49.0206 22.8457 49.3799 22.8457C49.7392 22.8457 50.0486 23.038 50.2076 23.3603L53.9754 30.9945C54.1099 31.2669 54.3697 31.4557 54.6703 31.4993L62.0687 32.5744C62.6214 32.6548 63.0545 33.0198 63.2271 33.5512C63.3996 34.0822 63.2639 34.6321 62.864 35.0219L57.5103 40.2405C57.2928 40.4526 57.1936 40.758 57.2449 41.0574L58.6841 49.4482C58.7449 49.8023 58.6075 50.1398 58.3169 50.351C58.0264 50.5621 57.6629 50.5883 57.3448 50.4211L49.8094 46.4596C49.5405 46.3184 49.2194 46.3184 48.9506 46.4596L41.4149 50.421ZM44.5802 58.5267L47.2205 49.4543L49.3799 48.319L51.5392 49.4542L54.1796 58.5266C54.3381 59.0709 54.5935 59.5694 54.9233 60.0057H43.8364C44.1663 59.5695 44.4217 59.0711 44.5802 58.5267ZM32.0038 82.1543C32.3846 81.0801 33.4111 80.3086 34.6143 80.3086C35.1239 80.3086 35.5371 79.8955 35.5371 79.3857V61.8516H63.2227V78.4629H38.3057C37.796 78.4629 37.3828 78.876 37.3828 79.3857C37.3828 79.8955 37.796 80.3086 38.3057 80.3086H64.1455C65.3487 80.3086 66.3751 81.0801 66.7559 82.1543H32.0038Z" fill="white"/>
</g>
<defs>
<clipPath id="clip0_21_1937">
<rect width="97.8462" height="106" fill="white" transform="translate(0.078125)"/>
</clipPath>
</defs>
</svg>
