<svg width="98" height="106" viewBox="0 0 98 106" fill="none" xmlns="http://www.w3.org/2000/svg">
<g clip-path="url(#clip0_21_3161)">
<mask id="mask0_21_3161" style="mask-type:alpha" maskUnits="userSpaceOnUse" x="0" y="0" width="98" height="106">
<path d="M0.0781251 0H97.9243V103.336C97.9244 103.649 97.8523 103.958 97.7136 104.239C97.575 104.52 97.3735 104.765 97.1247 104.955C96.876 105.145 96.5868 105.276 96.2795 105.336C95.9722 105.397 95.6551 105.386 95.3528 105.304L49.5343 92.8947C49.1852 92.8001 48.8172 92.8001 48.4681 92.8947L2.64964 105.304C2.34734 105.386 2.03023 105.397 1.72292 105.336C1.41561 105.276 1.12637 105.145 0.877656 104.955C0.628939 104.765 0.42743 104.52 0.288771 104.239C0.150112 103.958 0.0780322 103.649 0.0781251 103.336V0Z" fill="#D9C2EC"/>
</mask>
<g mask="url(#mask0_21_3161)">
<path d="M-12.1562 -28.5381H114.16V130.462H-12.1562V-28.5381Z" fill="#0DA5B3"/>
</g>
<path d="M20.1693 80.8337C18.2214 80.8337 16.5532 80.1395 15.1649 78.7512C13.7766 77.3628 13.0836 75.6959 13.0859 73.7503V31.2503C13.0859 29.3024 13.7801 27.6343 15.1684 26.246C16.5568 24.8576 18.2237 24.1646 20.1693 24.167H76.8359C78.7839 24.167 80.452 24.8612 81.8403 26.2495C83.2287 27.6378 83.9216 29.3048 83.9193 31.2503V73.7503C83.9193 75.6982 83.2251 77.3664 81.8368 78.7547C80.4484 80.143 78.7815 80.836 76.8359 80.8337H20.1693ZM48.5026 56.042L20.1693 38.3337V73.7503H76.8359V38.3337L48.5026 56.042ZM48.5026 48.9587L76.8359 31.2503H20.1693L48.5026 48.9587ZM20.1693 38.3337V31.2503V73.7503V38.3337Z" fill="white"/>
</g>
<defs>
<clipPath id="clip0_21_3161">
<rect width="97.8462" height="106" fill="white" transform="translate(0.078125)"/>
</clipPath>
</defs>
</svg>
