<svg width="50" height="50" viewBox="0 0 50 50" fill="none" xmlns="http://www.w3.org/2000/svg">
<circle cx="24.5" cy="25.5" r="14.5" fill="#2C2620"/>
<path fill-rule="evenodd" clip-rule="evenodd" d="M37.5 37.5C30.5969 44.4031 19.4031 44.4031 12.5 37.5C5.59689 30.5969 5.59689 19.4031 12.5 12.5C19.4031 5.59687 30.5969 5.59687 37.5 12.5C44.4031 19.4031 44.4031 30.5969 37.5 37.5ZM24.375 16.0417C24.5408 15.8759 24.7656 15.7828 25 15.7828C25.2344 15.7828 25.4592 15.8759 25.625 16.0417C25.7908 16.2074 25.8839 16.4322 25.8839 16.6667C25.8839 16.9011 25.7908 17.1259 25.625 17.2917L18.8 24.1166L32.576 24.1156C32.8106 24.1156 33.0355 24.2088 33.2014 24.3746C33.3672 24.5405 33.4604 24.7654 33.4604 25C33.4604 25.2345 33.3672 25.4595 33.2014 25.6253C33.0355 25.7912 32.8106 25.8844 32.576 25.8844H18.801L25.625 32.7083C25.7908 32.8741 25.8839 33.0989 25.8839 33.3333C25.8839 33.5677 25.7908 33.7925 25.625 33.9583C25.4592 34.1241 25.2344 34.2172 25 34.2172C24.7656 34.2172 24.5408 34.1241 24.375 33.9583L16.0417 25.625C15.9596 25.5429 15.8945 25.4455 15.8501 25.3382C15.8057 25.231 15.7828 25.1161 15.7828 25C15.7828 24.8839 15.8057 24.769 15.8501 24.6617C15.8945 24.5545 15.9596 24.4571 16.0417 24.375L24.375 16.0417Z" fill="#F1F3F6"/>
</svg>
