<svg width="34" height="34" viewBox="0 0 34 34" fill="none" xmlns="http://www.w3.org/2000/svg">
<path fill-rule="evenodd" clip-rule="evenodd" d="M8.48165 8.48444C3.79566 13.1704 3.79566 20.769 8.48165 25.455C13.1677 30.141 20.7662 30.141 25.4522 25.455C30.1382 20.769 30.1382 13.1704 25.4522 8.48444C20.7662 3.79845 13.1677 3.79845 8.48165 8.48444ZM23.0481 17.394C23.1606 17.2815 23.2238 17.1289 23.2238 16.9697C23.2238 16.8106 23.1606 16.658 23.0481 16.5455C22.9355 16.4329 22.7829 16.3697 22.6238 16.3697C22.4647 16.3697 22.312 16.4329 22.1995 16.5455L17.5666 21.1784L17.5673 11.8269C17.5673 11.6677 17.504 11.515 17.3914 11.4024C17.2789 11.2899 17.1262 11.2266 16.9669 11.2266C16.8077 11.2266 16.655 11.2899 16.5424 11.4024C16.4299 11.515 16.3666 11.6677 16.3666 11.8269L16.3666 21.1777L11.7343 16.5455C11.6218 16.4329 11.4692 16.3697 11.3101 16.3697C11.151 16.3697 10.9983 16.4329 10.8858 16.5455C10.7733 16.658 10.7101 16.8106 10.7101 16.9697C10.7101 17.1289 10.7733 17.2815 10.8858 17.394L16.5427 23.0508C16.5984 23.1066 16.6645 23.1508 16.7373 23.1809C16.8101 23.2111 16.8881 23.2266 16.9669 23.2266C17.0457 23.2266 17.1238 23.2111 17.1965 23.1809C17.2693 23.1508 17.3355 23.1066 17.3912 23.0508L23.0481 17.394Z" fill="#FFCC00"/>
</svg>
