<svg width="99" height="106" viewBox="0 0 99 106" fill="none" xmlns="http://www.w3.org/2000/svg">
<g clip-path="url(#clip0_2_314)">
<mask id="mask0_2_314" style="mask-type:alpha" maskUnits="userSpaceOnUse" x="0" y="0" width="99" height="106">
<path d="M0.28125 0H98.1274V103.336C98.1275 103.649 98.0554 103.958 97.9168 104.239C97.7781 104.52 97.5766 104.765 97.3279 104.955C97.0791 105.145 96.7899 105.276 96.4826 105.336C96.1753 105.397 95.8582 105.386 95.5559 105.304L49.7374 92.8947C49.3883 92.8001 49.0203 92.8001 48.6713 92.8947L2.85277 105.304C2.55046 105.386 2.23335 105.397 1.92604 105.336C1.61874 105.276 1.3295 105.145 1.08078 104.955C0.832064 104.765 0.630555 104.52 0.491896 104.239C0.353237 103.958 0.281157 103.649 0.28125 103.336V0Z" fill="#D9C2EC"/>
</mask>
<g mask="url(#mask0_2_314)">
<path d="M-11.9531 -28.5381H114.363V130.462H-11.9531V-28.5381Z" fill="#FCC900"/>
</g>
<path d="M63.8349 30.6576L61.8567 20.9922H37.2306L35.2524 30.6576C34.8021 32.857 36.1306 34.9969 37.9461 34.9969H61.1408C62.9564 34.9969 64.2848 32.857 63.8349 30.6576Z" fill="#5E3E2F"/>
<path d="M37.5203 62.184H38.7352V49.3154H32.6484V57.3121C32.6484 60.0025 34.8299 62.184 37.5203 62.184Z" fill="#FEDBB0"/>
<path d="M61.4649 62.184H60.25V49.3154H66.3368V57.3121C66.3368 60.0025 64.1557 62.184 61.4649 62.184Z" fill="#FEDBB0"/>
<path d="M45.8055 70.5654H39.7188V76.877H45.8055V70.5654Z" fill="#FEDBB0"/>
<path d="M59.2665 70.5654H53.1797V76.877H59.2665V70.5654Z" fill="#FEDBB0"/>
<path d="M60.2444 41.0342H38.7344V58.8812H60.2444V41.0342Z" fill="#F47DA5"/>
<path d="M49.3273 45.004C47.1963 45.004 45.4688 43.2781 45.4688 41.1492V37.1113H53.1855V41.1492C53.1858 43.2781 51.4583 45.004 49.3273 45.004Z" fill="#E8C197"/>
<path d="M37.9875 32.3984C39.6892 32.3984 41.0687 31.0201 41.0687 29.3198C41.0687 27.6195 39.6892 26.2412 37.9875 26.2412C36.2858 26.2412 34.9062 27.6195 34.9062 29.3198C34.9062 31.0201 36.2858 32.3984 37.9875 32.3984Z" fill="#FEDBB0"/>
<path d="M39.7764 29.3195C39.7764 30.3053 38.9766 31.1048 37.9898 31.1048C37.003 31.1048 36.2031 30.3056 36.2031 29.3195C36.2031 28.3337 37.003 27.5342 37.9898 27.5342C38.9762 27.5342 39.7764 28.3334 39.7764 29.3195Z" fill="#E8C197"/>
<path d="M60.675 32.3984C62.3767 32.3984 63.7562 31.0201 63.7562 29.3198C63.7562 27.6195 62.3767 26.2412 60.675 26.2412C58.9733 26.2412 57.5938 27.6195 57.5938 29.3198C57.5938 31.0201 58.9733 32.3984 60.675 32.3984Z" fill="#FEDBB0"/>
<path d="M62.4639 29.3195C62.4639 30.3053 61.6641 31.1048 60.6773 31.1048C59.6905 31.1048 58.8906 30.3056 58.8906 29.3195C58.8906 28.3337 59.6905 27.5342 60.6773 27.5342C61.6641 27.5342 62.4639 28.3334 62.4639 29.3195Z" fill="#E8C197"/>
<path d="M60.6703 24.8481V30.1423C60.7081 35.8118 55.4242 40.3905 49.3274 40.342C43.2307 40.3898 37.9467 35.8118 37.9846 30.1423V24.8481C37.9846 19.2159 43.064 14.6484 49.3274 14.6484C55.5919 14.6468 60.6686 19.2169 60.6703 24.8481Z" fill="#FEDBB0"/>
<path d="M45.425 27.731C45.425 28.4797 44.8173 29.087 44.0679 29.087C43.3186 29.087 42.7109 28.4801 42.7109 27.731C42.7109 26.9823 43.3186 26.375 44.0679 26.375C44.8173 26.375 45.425 26.9823 45.425 27.731Z" fill="#725246"/>
<path d="M54.5992 29.087C55.3487 29.087 55.9562 28.4799 55.9562 27.731C55.9562 26.9821 55.3487 26.375 54.5992 26.375C53.8497 26.375 53.2422 26.9821 53.2422 27.731C53.2422 28.4799 53.8497 29.087 54.5992 29.087Z" fill="#725246"/>
<path d="M66.6454 81.6044C66.6454 78.9933 64.527 76.877 61.9139 76.877H52.8893C52.5404 76.877 52.2578 77.1595 52.2578 77.5081V81.6044C52.2578 82.9986 53.389 84.1288 54.7846 84.1288H64.119C65.5142 84.1292 66.6454 82.9986 66.6454 81.6044Z" fill="#E06E9A"/>
<path d="M32.3438 81.6044C32.3438 78.9933 34.4621 76.877 37.0752 76.877H46.0998C46.4488 76.877 46.7313 77.1595 46.7313 77.5081V81.6044C46.7313 82.9986 45.6001 84.1288 44.2046 84.1288H34.8705C33.475 84.1292 32.3438 82.9986 32.3438 81.6044Z" fill="#E06E9A"/>
<path d="M46.0139 12.4539C46.0305 17.5974 43.1511 22.2478 38.7673 24.6312C37.8399 25.1352 36.7017 24.4097 36.7944 23.3591C37.1095 19.7898 38.6972 16.5233 41.1928 14.2223C42.5412 12.9745 44.1538 12.0126 45.9737 11.4346C45.9996 11.7709 46.0139 12.1099 46.0139 12.4539Z" fill="#5E3E2F"/>
<path d="M61.4791 23.7823C53.3516 27.9745 43.1337 23.1896 41.1953 14.2217C42.5361 12.9809 44.1384 12.0227 45.9457 11.4436C53.5017 8.99292 61.0315 14.7384 62.179 22.4169C62.262 22.9721 61.9781 23.5249 61.4791 23.7823Z" fill="#725246"/>
<path d="M61.807 72.2219H37.177C36.3625 72.2219 35.7612 71.4618 35.9484 70.6689L38.7368 58.8818H60.2468L63.0352 70.6689C63.2232 71.4615 62.6218 72.2219 61.807 72.2219Z" fill="#A3A09D"/>
<path d="M32.6484 49.3157H38.7352V41.0342H38.7326C35.3724 41.0342 32.6484 43.7582 32.6484 47.1183V49.3157Z" fill="#E06E9A"/>
<path d="M66.3368 49.3157H60.25V41.0342H60.2527C63.6128 41.0342 66.3368 43.7582 66.3368 47.1183V49.3157Z" fill="#E06E9A"/>
<path d="M53.8463 31.5156C54.5173 31.5156 55.0257 32.1422 54.8706 32.7953C54.2935 35.2224 52.1117 37.0277 49.508 37.0277C46.9042 37.0277 44.7224 35.2224 44.1453 32.7953C43.9899 32.1425 44.4986 31.5156 45.1696 31.5156H53.8463Z" fill="#D1AB86"/>
<path d="M49.5096 37.0279C51.6679 37.0279 53.4176 36.3003 53.4176 35.4026C53.4176 34.505 51.6679 33.7773 49.5096 33.7773C47.3512 33.7773 45.6016 34.505 45.6016 35.4026C45.6016 36.3003 47.3512 37.0279 49.5096 37.0279Z" fill="#E8C197"/>
<path d="M31.9998 40.6718L29.3588 38.0308C28.5633 37.2353 28.9511 35.8753 30.0465 35.6189L35.7454 34.2852L34.412 39.9838C34.1553 41.0795 32.7953 41.4673 31.9998 40.6718Z" fill="#5E3E2F"/>
<path d="M36.8971 33.8854L36.1406 33.1289L34.2638 35.0057L35.0203 35.7622L36.8971 33.8854Z" fill="#5E3E2F"/>
<path d="M34.7592 34.517L35.5156 35.2734L36.0591 34.7299L35.3027 33.9735L34.7592 34.517Z" fill="#E06E9A"/>
<path d="M67.0191 40.6718L69.6601 38.0308C70.4556 37.2353 70.0678 35.8753 68.9724 35.6189L63.2734 34.2852L64.6069 39.9838C64.8635 41.0795 66.2235 41.4673 67.0191 40.6718Z" fill="#5E3E2F"/>
<path d="M63.9935 35.7623L64.75 35.0059L62.8732 33.129L62.1167 33.8855L63.9935 35.7623Z" fill="#5E3E2F"/>
<path d="M63.7174 33.973L62.9609 34.7295L63.5045 35.273L64.2609 34.5165L63.7174 33.973Z" fill="#E06E9A"/>
<path d="M67.9541 41.6105L70.5951 38.9696C71.3036 38.261 71.5732 37.2221 71.2983 36.2582C71.0234 35.2943 70.2464 34.5539 69.2706 34.3254L64.9496 33.3144C65.2643 32.3953 65.3327 31.3743 65.1315 30.3915L65.0362 29.9263C65.0641 29.7251 65.0781 29.5223 65.0781 29.3197C65.0781 28.5149 64.8609 27.7366 64.4479 27.0516L63.5158 22.4985C63.5122 22.4038 63.5036 22.3119 63.49 22.2206C62.977 18.7867 61.2813 15.5992 58.7157 13.2448C56.1145 10.8581 52.8503 9.54395 49.5247 9.54395C48.2085 9.54395 46.893 9.7498 45.6144 10.1555C45.6004 10.1595 45.5865 10.1635 45.5729 10.1678C40.2614 11.8506 36.3361 16.6903 35.5608 22.5051L34.7872 26.2843C34.0102 27.0998 33.5729 28.1815 33.5729 29.3201C33.5729 29.8672 33.6722 30.3982 33.8688 30.9035C33.7808 31.7087 33.8684 32.5268 34.1181 33.2765L34.0856 33.3091L29.743 34.3251C28.7671 34.5535 27.9902 35.294 27.7152 36.2579C27.4403 37.2217 27.7099 38.2607 28.4185 38.9692L31.0595 41.6102C31.5811 42.1318 32.2707 42.4194 33.0025 42.4207C31.9513 43.7003 31.3198 45.3366 31.3198 47.1183V57.312C31.3198 60.3142 33.465 62.825 36.3029 63.3921L34.654 70.3624C34.4707 71.1377 34.649 71.9409 35.1434 72.5658C35.6378 73.1907 36.3783 73.5489 37.1751 73.5489H38.3881V75.5484H37.0729C33.7316 75.5484 31.0133 78.2651 31.0133 81.604C31.0133 83.7284 32.7425 85.4566 34.8682 85.4566H44.2026C46.3282 85.4566 48.0575 83.7284 48.0575 81.604V77.5078C48.0575 76.8065 47.6869 76.1903 47.1318 75.8439V73.5489H51.8496V75.8469C51.2968 76.1936 50.9282 76.8085 50.9282 77.5081V81.6044C50.9282 83.7287 52.6574 85.4569 54.7831 85.4569H64.1175C66.2432 85.4569 67.9724 83.7287 67.9724 81.6044C67.9724 78.2651 65.254 75.5488 61.9128 75.5488H60.593V73.5493H61.8059C62.6028 73.5493 63.3432 73.191 63.8376 72.5661C64.332 71.9412 64.5103 71.1381 64.327 70.3628L62.6781 63.3924C65.516 62.8253 67.6613 60.3145 67.6613 57.3123V47.1186C67.6613 45.3372 67.0297 43.7007 65.9785 42.421C65.9882 42.421 65.9978 42.421 66.0071 42.421C66.7399 42.421 67.4315 42.1331 67.9541 41.6105ZM62.957 34.7288L62.6592 34.431C62.2259 34.787 61.7053 34.9968 61.1365 34.9968H59.3014C57.9719 37.1822 55.7775 38.8852 53.184 39.7385V41.0338H60.248C63.6082 41.0338 66.3321 43.7578 66.3321 47.1179V57.3116C66.3321 60.0024 64.151 62.1835 61.4602 62.1835H61.0266L63.0337 70.6679C63.2213 71.4608 62.62 72.2208 61.8052 72.2208H59.2642V76.8766H61.9121C64.5252 76.8766 66.6436 78.9933 66.6436 81.604C66.6436 82.9982 65.5124 84.1285 64.1168 84.1285H54.7831C53.3876 84.1285 52.2563 82.9982 52.2563 81.604V77.5078C52.2563 77.1591 52.5392 76.8766 52.8879 76.8766H53.1774V72.2208H45.8033V76.8766H46.0975C46.4465 76.8766 46.729 77.1591 46.729 77.5078V81.604C46.729 82.9982 45.5978 84.1285 44.2023 84.1285H34.8682C33.4727 84.1285 32.3414 82.9982 32.3414 81.604C32.3414 78.9929 34.4598 76.8766 37.0729 76.8766H39.7162V72.2208H37.1755C36.361 72.2208 35.7597 71.4608 35.947 70.6679L37.9541 62.1835H37.5205C34.8297 62.1835 32.6486 60.0024 32.6486 57.3116V47.1179C32.6486 43.7578 35.3725 41.0338 38.7327 41.0338H45.4673V39.7382C42.8738 38.8846 40.6794 37.1819 39.3499 34.9965H37.9418C37.3581 34.9965 36.8258 34.773 36.3859 34.3998L36.0572 34.7285L35.5137 35.2721L34.4113 39.9832C34.248 40.6815 33.636 41.0922 33.0078 41.0922C32.6506 41.0922 32.2876 40.9594 31.9994 40.6709L29.3585 38.0299C28.5629 37.2344 28.9507 35.8744 30.0461 35.618L34.7573 34.5157L35.7013 33.5717C35.2404 32.7855 35.0402 31.7605 35.2391 30.7156C35.0249 30.2962 34.9017 29.8228 34.9017 29.3194C34.9017 28.3718 35.331 27.5248 36.0051 26.96L36.872 22.7246C37.5497 17.517 41.0051 13.0077 45.9743 11.4332V11.4342C47.1673 11.0507 48.359 10.8714 49.525 10.8714C55.7357 10.8714 61.2122 15.9601 62.1771 22.4165C62.1884 22.4912 62.1917 22.5659 62.1897 22.6399L63.1971 27.562C63.5451 28.0607 63.7506 28.6656 63.7506 29.3194C63.7506 29.5352 63.728 29.7454 63.6858 29.9486L63.8309 30.6571C64.0524 31.7399 63.8416 32.8071 63.3551 33.6129L64.2576 34.5154L68.9688 35.6177C70.0645 35.874 70.4523 37.234 69.6564 38.0296L67.0155 40.6705C66.7269 40.9591 66.3643 41.0919 66.0071 41.0919C65.3789 41.0919 64.7669 40.6812 64.6036 39.9829L63.5012 35.2717L62.957 34.7288ZM63.3332 40.379C62.3936 39.9471 61.3483 39.7063 60.2483 39.7063H56.3964C57.8365 38.8215 59.0716 37.673 60.0189 36.3253H61.1368C61.5486 36.3253 61.9513 36.2559 62.3351 36.1207L63.31 40.2864C63.317 40.3176 63.3249 40.3481 63.3332 40.379ZM35.6857 40.3618C35.6923 40.3369 35.6986 40.3116 35.7042 40.2864L36.6841 36.0985C37.0858 36.2482 37.5085 36.3253 37.9415 36.3253H38.6328C39.5797 37.673 40.8149 38.8215 42.2552 39.7063H38.7327C37.6473 39.706 36.6157 39.9407 35.6857 40.3618Z" fill="#422618"/>
</g>
<defs>
<clipPath id="clip0_2_314">
<rect width="97.8462" height="106" fill="white" transform="translate(0.28125)"/>
</clipPath>
</defs>
</svg>
