<svg width="99" height="106" viewBox="0 0 99 106" fill="none" xmlns="http://www.w3.org/2000/svg">
<g clip-path="url(#clip0_2_345)">
<mask id="mask0_2_345" style="mask-type:alpha" maskUnits="userSpaceOnUse" x="0" y="0" width="99" height="106">
<path d="M0.671875 0H98.518V103.336C98.5181 103.649 98.446 103.958 98.3074 104.239C98.1687 104.52 97.9672 104.765 97.7185 104.955C97.4698 105.145 97.1805 105.276 96.8732 105.336C96.5659 105.397 96.2488 105.386 95.9465 105.304L50.128 92.8947C49.7789 92.8001 49.411 92.8001 49.0619 92.8947L3.24339 105.304C2.94109 105.386 2.62398 105.397 2.31667 105.336C2.00936 105.276 1.72012 105.145 1.47141 104.955C1.22269 104.765 1.02118 104.52 0.882521 104.239C0.743862 103.958 0.671782 103.649 0.671875 103.336V0Z" fill="#D9C2EC"/>
</mask>
<g mask="url(#mask0_2_345)">
<path d="M-21.1406 -28.2676H113.126V141.332H-21.1406V-28.2676Z" fill="#89DE09"/>
<path d="M36.8919 61.0396H38.1702V47.5H31.7656V55.9137C31.7656 58.7446 34.0606 61.0396 36.8919 61.0396Z" fill="#FEDBB0"/>
<path d="M62.083 61.0396H60.8047V47.5H67.2089V55.9137C67.2092 58.7446 64.9139 61.0396 62.083 61.0396Z" fill="#FEDBB0"/>
<path d="M45.6073 69.8584H39.2031V76.499H45.6073V69.8584Z" fill="#FEDBB0"/>
<path d="M59.7714 69.8584H53.3672V76.499H59.7714V69.8584Z" fill="#FEDBB0"/>
<path d="M56.6079 38.7861H42.4601C37.9169 38.7861 34.6922 33.3773 36.0854 28.0941L38.4362 19.1797H60.6318L62.9826 28.0941C64.3758 33.3773 61.1508 38.7861 56.6079 38.7861Z" fill="#5E3E2F"/>
<path d="M60.8041 38.7861H38.1719V57.5642H60.8041V38.7861Z" fill="#ED619E"/>
<path d="M49.3393 45.9745C49.8459 45.9745 50.2567 45.5637 50.2567 45.0571C50.2567 44.5504 49.8459 44.1396 49.3393 44.1396C48.8326 44.1396 48.4219 44.5504 48.4219 45.0571C48.4219 45.5637 48.8326 45.9745 49.3393 45.9745Z" fill="#CC628E"/>
<path d="M49.3393 49.3348C49.8459 49.3348 50.2567 48.9241 50.2567 48.4174C50.2567 47.9107 49.8459 47.5 49.3393 47.5C48.8326 47.5 48.4219 47.9107 48.4219 48.4174C48.4219 48.9241 48.8326 49.3348 49.3393 49.3348Z" fill="#CC628E"/>
<path d="M49.3366 42.4603C47.3644 42.4603 45.7656 40.8629 45.7656 38.8923V35.1553H52.9076V38.8923C52.9076 40.8629 51.3086 42.4603 49.3366 42.4603Z" fill="#E8C197"/>
<path d="M59.8318 23.8052V28.705C59.867 33.9521 54.9765 38.1898 49.334 38.145C43.6914 38.1895 38.8006 33.9524 38.8361 28.705V23.8052C38.8361 18.5927 43.5374 14.3652 49.334 14.3652C55.1316 14.3639 59.8301 18.5937 59.8318 23.8052Z" fill="#FEDBB0"/>
<path d="M45.7231 26.4745C45.7231 27.1674 45.1606 27.7296 44.467 27.7296C43.7734 27.7296 43.2109 27.1678 43.2109 26.4745C43.2109 25.7815 43.7734 25.2197 44.467 25.2197C45.161 25.2194 45.7231 25.7812 45.7231 26.4745Z" fill="#725246"/>
<path d="M54.2092 27.7289C54.9029 27.7289 55.4653 27.167 55.4653 26.4738C55.4653 25.7807 54.9029 25.2188 54.2092 25.2188C53.5155 25.2188 52.9531 25.7807 52.9531 26.4738C52.9531 27.167 53.5155 27.7289 54.2092 27.7289Z" fill="#725246"/>
<path d="M67.5367 81.4732C67.5367 78.726 65.3078 76.499 62.5583 76.499H53.0632C52.6959 76.499 52.3984 76.7962 52.3984 77.1631V81.4732C52.3984 82.9401 53.5888 84.1294 55.057 84.1294H64.8782C66.3464 84.1294 67.5367 82.9401 67.5367 81.4732Z" fill="#827F7E"/>
<path d="M31.4453 81.4732C31.4453 78.726 33.6742 76.499 36.4238 76.499H45.9189C46.2861 76.499 46.5836 76.7962 46.5836 77.1631V81.4732C46.5836 82.9401 45.3933 84.1294 43.925 84.1294H34.1039C32.6356 84.1294 31.4453 82.9401 31.4453 81.4732Z" fill="#827F7E"/>
<path d="M46.2719 12.3352C46.2871 17.0956 43.6222 21.3997 39.5652 23.6054C38.7069 24.0719 37.6533 23.4005 37.7393 22.428C38.0308 19.1246 39.5004 16.1011 41.81 13.9718C43.0578 12.817 44.5506 11.9268 46.235 11.3916C46.2586 11.703 46.2719 12.0168 46.2719 12.3352Z" fill="#5E3E2F"/>
<path d="M60.5852 22.8196C53.0634 26.6993 43.6065 22.271 41.8125 13.9713C43.0533 12.8231 44.5362 11.9362 46.2089 11.4C53.2022 9.13191 60.1712 14.4491 61.233 21.5559C61.3097 22.0698 61.0471 22.5812 60.5852 22.8196Z" fill="#725246"/>
<path d="M62.447 71.6004H36.532C35.675 71.6004 35.0421 70.8005 35.2394 69.9665L38.1732 57.5645H60.8054L63.7393 69.9665C63.9365 70.8005 63.304 71.6004 62.447 71.6004Z" fill="#A3A09D"/>
<path d="M41.9723 61.0395C41.6253 61.0395 41.3438 60.7583 41.3438 60.4116V57.5645H42.6008V60.4116C42.6008 60.7586 42.3196 61.0395 41.9723 61.0395Z" fill="#827F7E"/>
<path d="M46.9879 61.0395C46.6409 61.0395 46.3594 60.7583 46.3594 60.4116V57.5645H47.6164V60.4116C47.6164 60.7586 47.3349 61.0395 46.9879 61.0395Z" fill="#827F7E"/>
<path d="M51.9957 61.0395C51.6487 61.0395 51.3672 60.7583 51.3672 60.4116V57.5645H52.6243V60.4116C52.6243 60.7586 52.3427 61.0395 51.9957 61.0395Z" fill="#827F7E"/>
<path d="M57.0035 61.0395C56.6566 61.0395 56.375 60.7583 56.375 60.4116V57.5645H57.6321V60.4116C57.6317 60.7586 57.3505 61.0395 57.0035 61.0395Z" fill="#827F7E"/>
<path d="M51.6282 33.9054H47.3437C46.5358 33.9054 45.8 33.4957 45.3744 32.8094L45.1775 32.4913C44.9846 32.1795 45.0812 31.7701 45.3926 31.5772C45.7044 31.384 46.1138 31.4802 46.3071 31.7924L46.5036 32.1101C46.6849 32.4026 46.9987 32.5773 47.3433 32.5773H51.6279C51.9725 32.5773 52.2863 32.4026 52.4679 32.1094L52.6641 31.7924C52.8574 31.4806 53.2661 31.384 53.5785 31.5772C53.89 31.7701 53.9866 32.1792 53.7937 32.4913L53.5971 32.809C53.1721 33.4957 52.436 33.9054 51.6282 33.9054Z" fill="#D1AB86"/>
<path d="M31.7656 47.4996H38.1698V38.7861H38.1672C34.6317 38.7861 31.7656 41.6522 31.7656 45.1877V47.4996Z" fill="#E06E9A"/>
<path d="M67.2089 47.4996H60.8047V38.7861H60.8073C64.3428 38.7861 67.2089 41.6522 67.2089 45.1877V47.4996Z" fill="#E06E9A"/>
<path d="M59.108 79.6218H59.1074C58.7418 79.6218 58.4453 79.3253 58.4453 78.9597V76.499H59.7701V78.9597C59.7705 79.3253 59.4739 79.6218 59.108 79.6218Z" fill="#ED619E"/>
<path d="M61.7096 79.6218H61.7089C61.3434 79.6218 61.0469 79.3253 61.0469 78.9597V76.499H62.3717V78.9597C62.3717 79.3253 62.0752 79.6218 61.7096 79.6218Z" fill="#ED619E"/>
<path d="M37.2643 79.6218H37.2636C36.8981 79.6218 36.6016 79.3253 36.6016 78.9597V76.499H37.9264V78.9597C37.9264 79.3253 37.6299 79.6218 37.2643 79.6218Z" fill="#ED619E"/>
<path d="M39.8659 79.6218H39.8652C39.4996 79.6218 39.2031 79.3253 39.2031 78.9597V76.499H40.5279V78.9597C40.5283 79.3253 40.2318 79.6218 39.8659 79.6218Z" fill="#ED619E"/>
<path d="M62.558 75.1713H61.1V72.9287H62.4454C63.2625 72.9287 64.0219 72.5612 64.5286 71.9203C65.0356 71.2795 65.2182 70.4561 65.0303 69.6609L63.2788 62.2566C66.2678 61.6938 68.5365 59.0634 68.5365 55.9135V45.1882C68.5365 41.3622 65.7425 38.1763 62.0875 37.5644C62.2396 37.3951 62.387 37.2178 62.5297 37.0328C64.4811 34.5001 65.1306 31.032 64.2666 27.7559L62.4706 20.9449C61.2979 14.4411 55.74 9.5433 49.5198 9.54297C48.2926 9.54297 47.0661 9.73455 45.8741 10.1127C45.8604 10.1167 45.8468 10.1207 45.8336 10.125C41.8784 11.3781 38.659 14.5709 37.2087 18.6732C37.1895 18.7196 37.1729 18.7678 37.1589 18.8169C36.9341 19.4747 36.7548 20.1544 36.6257 20.838L34.8015 27.7555C33.9375 31.0317 34.5867 34.4998 36.5383 37.0325C36.6775 37.2128 36.8209 37.3858 36.969 37.5515C33.2751 38.1302 30.4406 41.3343 30.4406 45.1879V55.9131C30.4406 59.0631 32.7094 61.6935 35.6983 62.2562L33.9468 69.6605C33.7586 70.4558 33.9415 71.2792 34.4485 71.92C34.9555 72.5608 35.7149 72.9284 36.5317 72.9284H37.8771V75.1709H36.4238C32.9464 75.1709 30.1172 77.9982 30.1172 81.4732C30.1172 83.6703 31.9055 85.4576 34.1039 85.4576H43.925C46.1234 85.4576 47.9117 83.6703 47.9117 81.4732V77.1631C47.9117 76.4363 47.5206 75.7995 46.9376 75.4515V72.9287H52.0402V75.4545C51.4598 75.8031 51.0707 76.4386 51.0707 77.1635V81.4735C51.0707 83.6706 52.859 85.4579 55.0574 85.4579H64.8785C67.0769 85.4579 68.8652 83.6706 68.8652 81.4735C68.8646 77.9985 66.0353 75.1713 62.558 75.1713ZM64.8779 84.1298H55.0567C53.5885 84.1298 52.3981 82.9405 52.3981 81.4735V77.1635C52.3981 76.7966 52.6956 76.4994 53.0629 76.4994H53.3677V71.6006H45.6088V76.4994H45.9182C46.2854 76.4994 46.583 76.7966 46.583 77.1635V81.4735C46.583 82.9405 45.3926 84.1298 43.9244 84.1298H34.1032C32.635 84.1298 31.4446 82.9405 31.4446 81.4735C31.4446 78.7263 33.6736 76.4994 36.4231 76.4994H39.2046V71.6006H36.531C35.6741 71.6006 35.0412 70.8007 35.2384 69.9667L37.3502 61.0397H36.8939C34.0627 61.0397 31.7677 58.7447 31.7677 55.9135V45.1882C31.7677 41.6527 34.6338 38.7866 38.1693 38.7866H42.4595C37.9163 38.7866 34.6916 33.3778 36.0848 28.0945L37.9212 21.1299C38.0431 20.4718 38.2131 19.8293 38.4286 19.2054L38.4352 19.1798H38.4372C39.7043 15.5358 42.5079 12.5711 46.2333 11.3911V11.3917C47.337 11.0371 48.4397 10.8711 49.5188 10.8711C55.161 10.8711 60.1468 15.4113 61.1717 21.2311L62.9816 28.0942C64.3748 33.3772 61.1502 38.7863 56.607 38.7863H60.8065C64.342 38.7863 67.2081 41.6524 67.2081 45.1879V55.9131C67.2081 58.744 64.9131 61.0393 62.0822 61.0393H61.626L63.7377 69.9663C63.9349 70.8004 63.3024 71.6003 62.4451 71.6003H59.7716V76.4991H62.5576C65.3072 76.4991 67.5361 78.726 67.5361 81.4732C67.5364 82.9405 66.3461 84.1298 64.8779 84.1298Z" fill="#422618"/>
</g>
</g>
<defs>
<clipPath id="clip0_2_345">
<rect width="97.8462" height="106" fill="white" transform="translate(0.671875)"/>
</clipPath>
</defs>
</svg>
