<svg width="56" height="56" viewBox="0 0 56 56" fill="none" xmlns="http://www.w3.org/2000/svg">
<path d="M27.7668 0.333496C16.2858 0.333496 12.928 0.345343 12.2754 0.399502C9.91926 0.595403 8.45315 0.966473 6.85591 1.76192C5.62499 2.37332 4.65421 3.08204 3.69612 4.07551C1.95126 5.88727 0.893766 8.11623 0.510953 10.7658C0.324834 12.052 0.27069 12.3144 0.259692 18.8845C0.255463 21.0745 0.259692 23.9567 0.259692 27.8227C0.259692 39.2975 0.272382 42.6528 0.327372 43.3044C0.517721 45.5977 0.877269 47.0405 1.63866 48.6187C3.09378 51.6397 5.87287 53.9076 9.14687 54.7538C10.2805 55.0458 11.5326 55.2066 13.14 55.2827C13.821 55.3123 20.7624 55.3335 27.708 55.3335C34.6536 55.3335 41.5992 55.325 42.2633 55.2912C44.1245 55.2036 45.2053 55.0585 46.4002 54.7496C48.0236 54.3332 49.5366 53.5673 50.8334 52.5054C52.1302 51.4436 53.1797 50.1113 53.9085 48.6018C54.655 47.0616 55.0336 45.5638 55.2049 43.3903C55.2422 42.9164 55.2578 35.3609 55.2578 27.8155C55.2578 20.2689 55.2409 12.7273 55.2037 12.2534C55.0302 10.0448 54.6517 8.55965 53.881 6.98991C53.2486 5.70491 52.5464 4.74529 51.527 3.76409C49.7081 2.02595 47.4831 0.968165 44.8313 0.585671C43.5467 0.399925 43.2908 0.34492 36.7174 0.333496H27.7668Z" fill="url(#paint0_radial_5_10300)"/>
<path d="M27.7668 0.333496C16.2858 0.333496 12.928 0.345343 12.2754 0.399502C9.91926 0.595403 8.45315 0.966473 6.85591 1.76192C5.62499 2.37332 4.65421 3.08204 3.69612 4.07551C1.95126 5.88727 0.893766 8.11623 0.510953 10.7658C0.324834 12.052 0.27069 12.3144 0.259692 18.8845C0.255463 21.0745 0.259692 23.9567 0.259692 27.8227C0.259692 39.2975 0.272382 42.6528 0.327372 43.3044C0.517721 45.5977 0.877269 47.0405 1.63866 48.6187C3.09378 51.6397 5.87287 53.9076 9.14687 54.7538C10.2805 55.0458 11.5326 55.2066 13.14 55.2827C13.821 55.3123 20.7624 55.3335 27.708 55.3335C34.6536 55.3335 41.5992 55.325 42.2633 55.2912C44.1245 55.2036 45.2053 55.0585 46.4002 54.7496C48.0236 54.3332 49.5366 53.5673 50.8334 52.5054C52.1302 51.4436 53.1797 50.1113 53.9085 48.6018C54.655 47.0616 55.0336 45.5638 55.2049 43.3903C55.2422 42.9164 55.2578 35.3609 55.2578 27.8155C55.2578 20.2689 55.2409 12.7273 55.2037 12.2534C55.0302 10.0448 54.6517 8.55965 53.881 6.98991C53.2486 5.70491 52.5464 4.74529 51.527 3.76409C49.7081 2.02595 47.4831 0.968165 44.8313 0.585671C43.5467 0.399925 43.2908 0.34492 36.7174 0.333496H27.7668Z" fill="url(#paint1_radial_5_10300)"/>
<path d="M27.7505 7.52637C22.2363 7.52637 21.5442 7.55049 19.3785 7.64907C17.217 7.74808 15.7416 8.09038 14.4506 8.59261C13.1152 9.11135 11.9824 9.80525 10.8538 10.9345C9.72442 12.0634 9.03071 13.1965 8.51042 14.5318C8.00705 15.8236 7.66443 17.2998 7.56714 19.4611C7.47069 21.6274 7.44531 22.3201 7.44531 27.8358C7.44531 33.3515 7.46985 34.0416 7.56798 36.2079C7.66739 38.37 8.00959 39.8458 8.51127 41.1372C9.03028 42.4729 9.724 43.606 10.853 44.7349C11.9811 45.8646 13.1139 46.5602 14.4485 47.0789C15.7403 47.5812 17.2161 47.9235 19.3772 48.0225C21.543 48.1211 22.2346 48.1452 27.7483 48.1452C33.263 48.1452 33.9529 48.1211 36.1186 48.0225C38.2801 47.9235 39.7572 47.5812 41.0491 47.0789C42.3841 46.5602 43.5151 45.8646 44.6433 44.7349C45.7727 43.606 46.4664 42.4729 46.9867 41.1376C47.4858 39.8458 47.8284 38.3696 47.93 36.2083C48.0273 34.042 48.0526 33.3515 48.0526 27.8358C48.0526 22.3201 48.0273 21.6279 47.93 19.4615C47.8284 17.2994 47.4858 15.8236 46.9867 14.5323C46.4664 13.1965 45.7727 12.0634 44.6433 10.9345C43.5139 9.80483 42.3845 9.11092 41.0478 8.59261C39.7534 8.09038 38.2772 7.74808 36.1157 7.64907C33.9499 7.55049 33.2604 7.52637 27.7445 7.52637H27.7505ZM25.929 11.1863C26.4696 11.1854 27.0728 11.1863 27.7505 11.1863C33.1716 11.1863 33.8141 11.2058 35.9549 11.3031C37.9345 11.3936 39.009 11.7245 39.7247 12.0025C40.6722 12.3706 41.3477 12.8106 42.0579 13.5215C42.7686 14.2323 43.2085 14.9093 43.5773 15.857C43.8552 16.5721 44.1864 17.6468 44.2765 19.627C44.3738 21.7679 44.395 22.411 44.395 27.8311C44.395 33.2512 44.3738 33.8943 44.2765 36.0353C44.186 38.0154 43.8552 39.0902 43.5773 39.8052C43.2093 40.753 42.7686 41.4279 42.0579 42.1383C41.3473 42.8491 40.6726 43.2891 39.7247 43.6572C39.0098 43.9365 37.9345 44.2665 35.9549 44.3571C33.8145 44.4544 33.1716 44.4755 27.7505 44.4755C22.3289 44.4755 21.6864 44.4544 19.546 44.3571C17.5664 44.2657 16.492 43.9348 15.7758 43.6568C14.8283 43.2887 14.1515 42.8487 13.4409 42.1378C12.7302 41.427 12.2903 40.7517 11.9215 39.8035C11.6436 39.0885 11.3124 38.0138 11.2223 36.0336C11.125 33.8926 11.1055 33.2495 11.1055 27.826C11.1055 22.4026 11.125 21.7628 11.2223 19.6219C11.3128 17.6417 11.6436 16.567 11.9215 15.8511C12.2895 14.9033 12.7302 14.2264 13.4409 13.5155C14.1515 12.8047 14.8283 12.3647 15.7758 11.9957C16.4915 11.7165 17.5664 11.3864 19.546 11.2955C21.419 11.2108 22.1449 11.1854 25.929 11.1812V11.1863ZM38.5885 14.5585C38.1066 14.5585 37.6355 14.7015 37.2348 14.9693C36.8341 15.2371 36.5218 15.6178 36.3374 16.0632C36.153 16.5086 36.1048 16.9986 36.1989 17.4714C36.293 17.9442 36.5251 18.3784 36.866 18.7192C37.2068 19.06 37.641 19.2921 38.1137 19.386C38.5864 19.48 39.0763 19.4316 39.5215 19.247C39.9667 19.0624 40.3471 18.7499 40.6148 18.349C40.8824 17.9481 41.0251 17.4768 41.025 16.9948C41.025 15.6493 39.9336 14.5577 38.5885 14.5577V14.5585ZM27.7505 17.406C21.9922 17.406 17.3236 22.0759 17.3236 27.8358C17.3236 33.5956 21.9922 38.2634 27.7505 38.2634C33.5087 38.2634 38.1761 33.5956 38.1761 27.8358C38.1761 22.0759 33.5087 17.406 27.7505 17.406ZM27.7505 21.066C31.4881 21.066 34.5184 24.0967 34.5184 27.8358C34.5184 31.5744 31.4881 34.6056 27.7505 34.6056C24.0124 34.6056 20.9825 31.5744 20.9825 27.8358C20.9825 24.0967 24.0124 21.066 27.7505 21.066Z" fill="white"/>
<defs>
<radialGradient id="paint0_radial_5_10300" cx="0" cy="0" r="1" gradientUnits="userSpaceOnUse" gradientTransform="translate(14.8673 59.5697) rotate(-90) scale(54.5091 50.6977)">
<stop stop-color="#FFDD55"/>
<stop offset="0.1" stop-color="#FFDD55"/>
<stop offset="0.5" stop-color="#FF543E"/>
<stop offset="1" stop-color="#C837AB"/>
</radialGradient>
<radialGradient id="paint1_radial_5_10300" cx="0" cy="0" r="1" gradientTransform="matrix(4.78245 23.8918 -98.481 19.7241 -8.95498 4.2956)" gradientUnits="userSpaceOnUse">
<stop stop-color="#3771C8"/>
<stop offset="0.128" stop-color="#3771C8"/>
<stop offset="1" stop-color="#6600FF" stop-opacity="0"/>
</radialGradient>
</defs>
</svg>
