<svg width="125" height="130" viewBox="0 0 125 130" fill="none" xmlns="http://www.w3.org/2000/svg">
<g clip-path="url(#clip0_5_10218)">
<path fill-rule="evenodd" clip-rule="evenodd" d="M104.331 70.0703H124.981C124.981 75.1629 124.988 80.2555 125.002 85.3481C125.016 90.4406 125.009 95.5315 124.981 100.621H118.343C118.562 96.8326 118.772 91.488 115.09 91.488C111.402 91.488 111.618 96.8326 111.836 100.621H104.331C104.218 95.5306 104.102 90.438 104.068 85.3481C104.034 80.2581 104.163 75.1629 104.331 70.0703Z" fill="#89DE09"/>
<path d="M36.3753 39.5852L0 43.4526L5.67069 96.4168L42.0459 92.5494L36.3753 39.5852Z" fill="#BCE3F9"/>
<path fill-rule="evenodd" clip-rule="evenodd" d="M46.3047 42.0005C15.6237 47.2768 1.50417 73.3488 1.36719 99.8039H46.3047V42.0005ZM39.0474 58.8821C33.0681 61.2539 27.8749 65.2469 24.0559 70.4087C20.1678 75.6413 17.393 82.28 15.7317 90.3249C15.4182 91.8553 14.0958 92.8029 12.7761 92.4381C11.4563 92.0732 10.645 90.5375 10.9585 89.0071C12.8077 80.04 15.9354 72.5962 20.3416 66.6759C24.6909 60.7786 30.6105 56.2127 37.4299 53.4955C38.7102 52.9705 40.1116 53.7581 40.5568 55.2491C41.002 56.7401 40.3276 58.3624 39.0474 58.8821ZM40.0194 72.6951C36.5431 74.0719 33.5234 76.3918 31.3027 79.3916C29.0337 82.4401 27.4128 86.3252 26.4399 91.0468C26.1264 92.5772 24.804 93.5222 23.4843 93.16C22.1645 92.7977 21.3532 91.2594 21.6666 89.729C22.8275 84.0939 24.8014 79.4038 27.5884 75.6588C30.3388 71.9229 34.0851 69.03 38.402 67.3085C39.6849 66.7835 41.0836 67.571 41.5315 69.0621C41.9793 70.5531 41.2996 72.1649 40.0194 72.6846V72.6951Z" fill="#0DB8C8"/>
<path fill-rule="evenodd" clip-rule="evenodd" d="M36.9225 44.6758C19.3732 50.8551 8.63863 64.8099 4.02344 81.0169L5.66984 96.418L42.0461 92.5539L39.9519 72.9764C36.5046 74.3559 33.511 76.6646 31.3063 79.644C29.0373 82.6925 27.4164 86.5776 26.4435 91.2992C26.13 92.8296 24.8076 93.7746 23.4878 93.4123C22.1681 93.0501 21.3567 91.5118 21.6702 89.9814C22.831 84.3463 24.805 79.6562 27.592 75.9112C30.3424 72.1752 34.0886 69.2824 38.4056 67.5609C38.7055 67.4372 39.03 67.3842 39.3539 67.406L38.4951 59.3655C32.746 61.7554 27.7564 65.657 24.0595 70.6532C20.1713 75.8858 17.3966 82.5245 15.7353 90.5694C15.4218 92.0998 14.0994 93.0474 12.7797 92.6826C11.4599 92.3177 10.6486 90.782 10.962 89.2516C12.8113 80.2967 15.939 72.8591 20.3452 66.9388C24.6945 61.0414 30.6141 56.4756 37.4335 53.7584C37.5769 53.6999 37.7262 53.6568 37.8787 53.6298L36.9225 44.6758Z" fill="#0DA5B3"/>
<path fill-rule="evenodd" clip-rule="evenodd" d="M44.078 35.7427H65.6787C65.9211 46.466 66.224 57.2024 66.8062 67.9152C67.3884 78.628 68.2656 89.3539 69.2192 100.067H63.5371C63.1472 94.2181 64.7989 81.8437 56.0743 81.8437C47.2707 81.8437 50.4107 94.6723 50.9323 100.067H43.8646C43.0743 89.3539 42.6054 78.628 42.7424 67.9152C42.8794 57.2024 43.4642 46.4634 44.078 35.7427Z" fill="#FFCC00"/>
<path fill-rule="evenodd" clip-rule="evenodd" d="M45.2133 99.8042H43.8646C43.0743 89.0914 42.6054 78.3655 42.7424 67.6527C42.8478 59.4389 43.2166 51.2173 43.6591 42.9956C45.0465 42.6211 46.4707 42.286 47.9319 41.9902C47.3286 54.8083 46.7991 66.0488 46.3355 75.9635C45.9193 84.7889 45.5479 92.6929 45.2133 99.8042Z" fill="#1B721B"/>
<path fill-rule="evenodd" clip-rule="evenodd" d="M51.9375 35.7427H65.6909C65.9332 46.466 66.2362 57.2024 66.8183 67.9152C67.4005 78.628 68.2777 89.3539 69.2313 100.067H69.0337C65.8094 89.3539 62.6167 78.6516 59.7401 67.9152C56.8767 57.226 54.361 46.4634 51.9375 35.7427Z" fill="#F77701"/>
<path fill-rule="evenodd" clip-rule="evenodd" d="M65.6296 35.6559C65.7561 38.3387 64.4679 41.2236 61.8205 41.2236C59.8922 41.2236 58.7516 39.6958 58.3618 37.8268C57.8902 39.6958 56.6732 41.2236 54.7502 41.2236C52.7877 41.2236 51.6471 39.6486 51.2888 37.7323C50.8226 39.6381 49.595 41.2236 47.6378 41.2236C44.9903 41.2236 43.8497 38.336 44.1158 35.6559C46.0897 30.593 48.0733 25.5267 50.0665 20.4569C52.0598 15.387 54.0653 10.3181 56.0831 5.25C57.6005 10.3242 59.131 15.401 60.7168 20.4595C62.3026 25.518 63.9569 30.5922 65.6296 35.6559Z" fill="#F6DDA7"/>
<path fill-rule="evenodd" clip-rule="evenodd" d="M65.6259 35.6561C65.7523 38.3389 64.4642 41.2238 61.8168 41.2238C59.8885 41.2238 58.7479 39.696 58.358 37.827C58.358 37.8847 58.329 37.9425 58.3159 37.9976C57.8522 32.5926 57.407 27.1719 57.0224 21.7643C56.6378 16.3567 56.2954 10.936 55.9688 5.52319C56.0083 5.43656 56.0399 5.34206 56.0794 5.24756C57.5967 10.3218 59.1272 15.3986 60.713 20.4571C62.2988 25.5155 63.9531 30.5924 65.6259 35.6561Z" fill="#E6B961"/>
<path fill-rule="evenodd" clip-rule="evenodd" d="M52.0312 15.4693C53.3782 12.0655 54.7278 8.65906 56.0801 5.25C57.1022 8.67131 58.1348 12.0839 59.1779 15.4877C58.0236 15.8089 56.8307 15.9714 55.6323 15.9707C54.4141 15.9745 53.2017 15.8057 52.0312 15.4693Z" fill="#12AEC4"/>
<path fill-rule="evenodd" clip-rule="evenodd" d="M55.9688 5.51245C56.0083 5.42582 56.0399 5.33132 56.0794 5.23682C57.1015 8.66687 58.1341 12.0838 59.1773 15.4876C58.342 15.7184 57.4863 15.8678 56.622 15.9339C56.3955 12.4706 56.1777 8.99675 55.9688 5.51245Z" fill="#128EA1"/>
<path fill-rule="evenodd" clip-rule="evenodd" d="M59.4512 45.623H62.5728C62.5517 47.3083 62.5333 48.9962 62.5201 50.6763H59.3906C59.4091 48.9962 59.4275 47.3083 59.4512 45.623Z" fill="white"/>
<path fill-rule="evenodd" clip-rule="evenodd" d="M65.0386 43.2134H107.337C106.949 52.7817 106.631 62.3578 106.628 71.9209C106.625 81.4839 106.936 91.0548 107.337 100.62H65.0386C64.1772 91.0548 63.4317 81.4891 63.3922 71.9209C63.3527 62.3526 64.0718 52.7817 65.0386 43.2134Z" fill="#FDB0C3"/>
<path fill-rule="evenodd" clip-rule="evenodd" d="M98.5833 43.2134H107.337C106.95 52.7817 106.631 62.3578 106.628 71.9209C106.626 81.4839 106.936 91.0548 107.337 100.62H98.5833C98.088 91.0548 97.685 81.4865 97.6797 71.9209C97.6745 62.3552 98.0749 52.7817 98.5833 43.2134Z" fill="#ED619E"/>
<path fill-rule="evenodd" clip-rule="evenodd" d="M97.9953 54.4829H106.883C106.883 54.9712 106.857 55.4516 106.844 55.9346H97.9531C97.9716 55.4516 97.9953 54.9712 97.9953 54.4829Z" fill="#FFFF66"/>
<path fill-rule="evenodd" clip-rule="evenodd" d="M97.9251 56.8398H106.829C106.829 57.3281 106.802 57.8111 106.795 58.2941H97.875C97.8882 57.8111 97.9066 57.3281 97.9251 56.8398Z" fill="#FFFF66"/>
<path fill-rule="evenodd" clip-rule="evenodd" d="M97.9062 86.1016H106.794C106.794 86.5872 106.821 87.0702 106.834 87.5532H97.9537C97.9379 87.0597 97.9194 86.5767 97.9062 86.1016Z" fill="#FFFF66"/>
<path fill-rule="evenodd" clip-rule="evenodd" d="M97.9922 88.4482H106.862C106.88 88.9365 106.893 89.4195 106.906 89.9025H98.0343C98.0159 89.4195 97.9922 88.9365 97.9922 88.4482Z" fill="#FFFF66"/>
<path fill-rule="evenodd" clip-rule="evenodd" d="M65.8685 43.2134C66.0845 51.4508 66.369 59.6908 66.8141 67.915C67.3963 78.6331 68.2735 89.3538 69.2271 100.067H69.1955L69.2482 100.62H65.0334C64.467 94.3203 63.9481 87.9966 63.6478 81.686C63.4924 78.431 63.3844 75.1759 63.3844 71.9209C63.3449 62.3578 64.064 52.7817 65.0308 43.2134H65.8685Z" fill="#F16D99"/>
<path fill-rule="evenodd" clip-rule="evenodd" d="M75.3788 54.7769H80.8132C80.7729 57.7169 80.7421 60.65 80.721 63.576H75.2734C75.3033 60.6552 75.3384 57.7222 75.3788 54.7769Z" fill="white"/>
<path fill-rule="evenodd" clip-rule="evenodd" d="M75.3788 67.9492H80.8132C80.7729 70.8893 80.7421 73.8223 80.721 76.7484H75.2734C75.3033 73.8276 75.3384 70.8945 75.3788 67.9492Z" fill="white"/>
<path fill-rule="evenodd" clip-rule="evenodd" d="M84.1393 54.7769H89.5632C89.5263 57.7169 89.4964 60.65 89.4736 63.576H84.0312C84.0611 60.6552 84.0971 57.7222 84.1393 54.7769Z" fill="white"/>
<path fill-rule="evenodd" clip-rule="evenodd" d="M84.1393 67.9492H89.5632C89.5263 70.8893 89.4964 73.8223 89.4736 76.7484H84.0312C84.0611 73.8276 84.0971 70.8945 84.1393 67.9492Z" fill="white"/>
<path fill-rule="evenodd" clip-rule="evenodd" d="M65.0422 43.2134H65.872C66.088 51.4508 66.3725 59.6908 66.8177 67.915C67.3998 78.6331 68.277 89.3538 69.2306 100.067H69.0331C67.2207 94.029 65.4163 88.0176 63.6724 81.9879C63.5091 78.6331 63.409 75.2783 63.409 71.9209C63.3563 62.3578 64.0754 52.7817 65.0422 43.2134Z" fill="#CC3F6E"/>
<path fill-rule="evenodd" clip-rule="evenodd" d="M65.8665 43.2134V43.2843V43.5993V43.7857V43.9852V44.2897V44.3632V44.7491V44.7858V45.135V45.2872V45.5209V45.7834V45.8989V46.2847V46.6706V46.7861V47.0486V47.2796V47.4345V47.7836V47.8204L65.8796 48.2063V48.2876V48.5922V48.789L65.8954 49.293V49.3639L65.9086 49.7498V49.7944V50.1383V50.2984V50.5242V50.7998V50.9101V51.2959V51.674V51.8V52.0625V52.304V52.4483L65.9218 52.808V52.8342V53.2201V53.3094V53.606V53.8134V53.9919V54.3147V54.3777L65.9534 55.2913V55.3201V55.538V55.8241V55.9239L65.9692 56.3098V56.3255L65.985 56.6957V56.8295V57.092V57.3545V57.491L66.0008 57.8586V57.8769L66.0166 58.2628V58.3599V58.6487V58.8639V59.0346L66.0298 59.3653V59.4205L66.0456 59.8063V59.8693L66.0588 60.1922V60.3707V60.418L66.0798 60.8747V60.964L66.0983 61.3499V61.3761L66.1141 61.7357V61.8775V62.1216V62.3841V62.5101L66.1299 62.8855L66.1483 63.2714V63.379V63.6573V63.8804V64.0432L66.1668 64.3818V64.429L66.6436 64.8385V64.912L66.6594 65.2244V65.4134V65.6103L66.6752 65.9148V65.9962L66.6936 66.3821V66.4136L66.7199 66.9071L66.7331 67.1407V67.4032V67.5213L66.7542 67.9072C67.3364 78.6253 68.2136 89.3459 69.1672 100.059H68.9696C67.1572 94.0211 65.3528 88.0072 63.6089 81.9801L63.5931 81.6782C63.4377 78.4231 63.3297 75.1681 63.3297 71.913C63.2902 62.35 64.0093 52.7738 64.9761 43.2056L65.8665 43.2134Z" fill="#CC3F6E"/>
<path fill-rule="evenodd" clip-rule="evenodd" d="M55.9922 0L65.5966 2.67492L55.9922 5.45484V0Z" fill="#ED619E"/>
<path d="M9.29895 47.6128H5.69531V53.1018H9.29895V47.6128Z" fill="#FEFEFE"/>
<path d="M15.0646 47.6128H11.4609V53.1018H15.0646V47.6128Z" fill="#FEFEFE"/>
<path d="M9.29895 54.4458H5.69531V59.9348H9.29895V54.4458Z" fill="#FEFEFE"/>
<path fill-rule="evenodd" clip-rule="evenodd" d="M102.91 43.2134H107.338C106.951 52.7817 106.632 62.3578 106.629 71.9209C106.627 81.4839 106.938 91.0548 107.338 100.62H102.912C102.483 91.0548 102.154 81.4865 102.148 71.9235C102.143 62.3604 102.473 52.7843 102.91 43.2134Z" fill="#CC3F6E"/>
<path fill-rule="evenodd" clip-rule="evenodd" d="M65.9255 45.3842H105.795C106.243 45.3842 106.673 45.2067 106.991 44.8906C107.308 44.5746 107.486 44.1459 107.486 43.6989C107.486 43.252 107.308 42.8233 106.991 42.5073C106.673 42.1912 106.243 42.0137 105.795 42.0137H65.8359C65.864 43.1372 65.8939 44.2607 65.9255 45.3842Z" fill="#D5D5A8"/>
<path fill-rule="evenodd" clip-rule="evenodd" d="M102.406 55.9346L102.454 54.4829H106.89C106.89 54.9712 106.863 55.4516 106.85 55.9346H102.406Z" fill="#EF7E1A"/>
<path fill-rule="evenodd" clip-rule="evenodd" d="M102.344 58.2941C102.357 57.8085 102.37 57.3255 102.386 56.8398H106.83C106.83 57.3281 106.804 57.8111 106.796 58.2941H102.344Z" fill="#EF7E1A"/>
<path fill-rule="evenodd" clip-rule="evenodd" d="M102.409 87.5425C102.394 87.0568 102.38 86.5738 102.367 86.0908H106.793C106.793 86.5765 106.819 87.0595 106.832 87.5425H102.409Z" fill="#EF7E1A"/>
<path fill-rule="evenodd" clip-rule="evenodd" d="M102.488 89.9025C102.469 89.4169 102.453 88.9339 102.438 88.4482H106.855C106.874 88.9365 106.887 89.4195 106.9 89.9025H102.488Z" fill="#EF7E1A"/>
<path fill-rule="evenodd" clip-rule="evenodd" d="M106.637 70.0703C106.637 70.6863 106.637 71.3032 106.637 71.921C106.637 81.4866 106.945 91.0549 107.345 100.621H104.332C104.219 95.5306 104.103 90.438 104.068 85.3481C104.034 80.2581 104.153 75.1629 104.332 70.0703H106.637Z" fill="#F77701"/>
<path fill-rule="evenodd" clip-rule="evenodd" d="M109.695 87.5529V84.9883C111.218 85.0067 112.74 85.0198 114.255 85.0303V87.6028C112.748 87.5897 111.218 87.5739 109.695 87.5529Z" fill="white"/>
<path fill-rule="evenodd" clip-rule="evenodd" d="M116.516 87.5529V84.9883C118.038 85.0067 119.561 85.0198 121.075 85.0303V87.6028C119.561 87.5897 118.038 87.5739 116.516 87.5529Z" fill="white"/>
<path fill-rule="evenodd" clip-rule="evenodd" d="M109.695 83.4189V80.8516C111.218 80.8699 112.74 80.8831 114.255 80.8962V83.4766L109.695 83.4189Z" fill="white"/>
<path fill-rule="evenodd" clip-rule="evenodd" d="M116.516 83.4189V80.8516C118.038 80.8699 119.561 80.8831 121.075 80.8962V83.4766L116.516 83.4189Z" fill="white"/>
<path fill-rule="evenodd" clip-rule="evenodd" d="M49.5996 64.8804H52.7212C52.6975 66.5683 52.6817 68.2562 52.6685 69.9336H49.5391C49.5549 68.2509 49.5733 66.5683 49.5996 64.8804Z" fill="white"/>
<path d="M0 126.369V122.739H0.93779V110.556C0.93779 108.519 1.43654 106.955 2.43404 105.865C3.43154 104.775 4.9032 104.231 6.84903 104.232C8.79836 104.232 10.2709 104.777 11.2666 105.865C12.2624 106.954 12.762 108.517 12.7655 110.556V115.517C12.7655 117.553 12.2659 119.116 11.2666 120.206C10.2674 121.296 8.79485 121.841 6.84903 121.841C6.20596 121.848 5.56453 121.776 4.9392 121.626V122.739H12.7682V126.369H4.90496V129.677H0.93779V126.369H0ZM8.801 110.304C8.801 109.396 8.63241 108.762 8.29523 108.401C8.10642 108.214 7.87983 108.069 7.63049 107.976C7.38116 107.882 7.11478 107.843 6.84903 107.86C6.58355 107.845 6.31795 107.887 6.06993 107.983C5.82192 108.078 5.59719 108.225 5.41073 108.414C5.07355 108.775 4.90496 109.409 4.90496 110.317V115.764C4.90496 116.676 5.07355 117.311 5.41073 117.67C5.59834 117.857 5.82359 118.001 6.07155 118.094C6.31951 118.188 6.58452 118.227 6.84903 118.211C7.11417 118.228 7.37997 118.189 7.62884 118.096C7.87771 118.004 8.10395 117.859 8.29259 117.673C8.62977 117.312 8.79837 116.677 8.79837 115.767L8.801 110.304Z" fill="#008FB3"/>
<path d="M15.8672 129.677V110.556C15.8672 108.519 16.3659 106.955 17.3634 105.865C18.3609 104.775 19.8335 104.231 21.7811 104.232C23.7286 104.232 25.2012 104.777 26.1987 105.865C27.1962 106.954 27.6949 108.517 27.6949 110.556V129.677H23.7278V110.304C23.7278 109.396 23.56 108.762 23.2246 108.401C23.036 108.214 22.8098 108.07 22.561 107.976C22.3122 107.883 22.0464 107.844 21.7811 107.86C21.5148 107.845 21.2484 107.887 20.9995 107.982C20.7506 108.078 20.525 108.225 20.3375 108.414C20.0038 108.775 19.8361 109.409 19.8344 110.317V129.677H15.8672Z" fill="#008FB3"/>
<path d="M43.707 129.711V110.304C43.707 109.396 43.5384 108.762 43.2012 108.401C42.802 108.053 42.2895 107.861 41.7589 107.861C41.2284 107.861 40.7158 108.053 40.3167 108.401C39.9795 108.762 39.8109 109.396 39.8109 110.304V118.893H35.8438V110.556C35.8438 108.519 36.3434 106.955 37.3426 105.865C38.3419 104.775 39.8144 104.231 41.7603 104.232C43.7078 104.232 45.1804 104.777 46.1779 105.865C47.1754 106.954 47.675 108.517 47.6768 110.556V122.739H49.1546V126.369H47.6768V129.711H43.707Z" fill="#008FB3"/>
<path d="M50.7812 118.893V110.845C50.7812 108.808 51.2809 107.244 52.2801 106.154C53.2794 105.064 54.7519 104.519 56.6978 104.519H61.4578C63.4054 104.519 64.878 105.064 65.8755 106.154C66.873 107.244 67.3717 108.808 67.3717 110.845V129.677H63.4045V110.593C63.4045 109.681 63.2359 109.046 62.8988 108.687C62.7106 108.501 62.4848 108.356 62.2364 108.264C61.988 108.171 61.7226 108.132 61.4578 108.149H61.1338V124.687H57.1667V108.152H56.6978C56.4326 108.134 56.1668 108.173 55.9179 108.266C55.6691 108.359 55.4428 108.503 55.2542 108.69C54.917 109.05 54.7484 109.686 54.7484 110.596V118.896L50.7812 118.893Z" fill="#008FB3"/>
<path d="M69.9688 129.711V110.548C69.9688 108.511 70.4675 106.948 71.465 105.857C72.4625 104.767 73.935 104.223 75.8826 104.225C77.832 104.225 79.3045 104.769 80.3002 105.857C81.296 106.946 81.7956 108.51 81.7991 110.548V118.851H77.832V110.304C77.832 109.396 77.6634 108.762 77.3262 108.401C76.927 108.053 76.4145 107.861 75.8839 107.861C75.3534 107.861 74.8408 108.053 74.4417 108.401C74.1045 108.762 73.9359 109.396 73.9359 110.304V129.711H69.9688Z" fill="#008FB3"/>
<path d="M84.3516 129.677V110.556C84.3516 108.519 84.8512 106.955 85.8504 105.865C86.8497 104.775 88.3222 104.231 90.2681 104.232C92.2139 104.232 93.6864 104.777 94.6857 105.865C95.6849 106.954 96.1837 108.517 96.1819 110.556V129.677H92.2148V110.304C92.2148 109.396 92.0462 108.762 91.709 108.401C91.3099 108.053 90.7973 107.861 90.2667 107.861C89.7362 107.861 89.2237 108.053 88.8245 108.401C88.4873 108.762 88.3187 109.396 88.3187 110.304V129.677H84.3516Z" fill="#008FB3"/>
<path d="M102.709 123.674V123.936C102.709 124.857 102.878 125.5 103.215 125.866C103.402 126.055 103.627 126.202 103.876 126.296C104.124 126.39 104.391 126.43 104.656 126.412C104.921 126.428 105.187 126.389 105.436 126.296C105.685 126.202 105.911 126.058 106.1 125.871C106.437 125.51 106.605 124.874 106.605 123.962V118.914C106.605 118.004 106.437 117.369 106.1 117.009C105.911 116.822 105.685 116.677 105.436 116.584C105.187 116.491 104.921 116.451 104.656 116.468H104.477C104.225 116.475 103.978 116.534 103.751 116.643C103.524 116.752 103.323 116.907 103.16 117.098C102.86 117.471 102.709 118.076 102.709 118.914V119.177H98.7422C98.7422 117.231 99.1874 115.73 100.078 114.675C99.2102 113.597 98.8247 112.197 98.9213 110.475V110.367C99.0197 108.423 99.579 106.911 100.599 105.831C101.62 104.751 102.972 104.247 104.656 104.319C106.412 104.296 107.777 104.829 108.75 105.918C109.723 107.006 110.27 108.522 110.391 110.464C110.438 112.263 110.041 113.663 109.2 114.665C110.113 115.767 110.571 117.264 110.573 119.156V123.684C110.573 125.721 110.073 127.285 109.074 128.375C108.074 129.465 106.602 130.01 104.656 130.01C102.71 130.01 101.238 129.465 100.238 128.375C99.2392 127.285 98.7404 125.721 98.7422 123.684L102.709 123.674ZM102.709 110.341C102.709 111.206 102.86 111.822 103.16 112.192C103.321 112.382 103.523 112.534 103.751 112.636C103.979 112.739 104.227 112.79 104.477 112.785H104.84C105.087 112.786 105.331 112.733 105.555 112.631C105.78 112.528 105.979 112.378 106.139 112.192C106.45 111.822 106.608 111.205 106.608 110.341C106.608 109.431 106.439 108.796 106.102 108.435C105.702 108.088 105.19 107.897 104.66 107.897C104.13 107.897 103.618 108.088 103.218 108.435C102.879 108.796 102.709 109.431 102.709 110.341Z" fill="#008FB3"/>
<path d="M125.002 126.083V129.677H113.172V110.556C113.172 108.519 113.671 106.955 114.668 105.865C115.666 104.775 117.139 104.231 119.088 104.232C121.034 104.232 122.507 104.777 123.506 105.865C124.505 106.954 125.004 108.517 125.002 110.556V118.678H121.035V110.304C121.035 109.396 120.866 108.762 120.529 108.401C120.129 108.049 119.614 107.855 119.08 107.855C118.547 107.855 118.032 108.049 117.632 108.401C117.294 108.762 117.126 109.396 117.126 110.304V126.083H125.002Z" fill="#008FB3"/>
</g>
<defs>
<clipPath id="clip0_5_10218">
<rect width="125" height="130" fill="white"/>
</clipPath>
</defs>
</svg>
