<svg width="97" height="106" viewBox="0 0 97 106" fill="none" xmlns="http://www.w3.org/2000/svg">
<mask id="mask0_2_422" style="mask-type:alpha" maskUnits="userSpaceOnUse" x="0" y="2" width="97" height="104">
<path d="M0.421875 2H96.4219V103.386C96.422 103.693 96.3512 103.996 96.2152 104.272C96.0792 104.548 95.8815 104.788 95.6374 104.975C95.3934 105.162 95.1096 105.29 94.8081 105.349C94.5066 105.408 94.1955 105.397 93.8989 105.317L48.9449 93.142C48.6024 93.0492 48.2414 93.0492 47.8989 93.142L2.94488 105.317C2.64827 105.397 2.33714 105.408 2.03563 105.349C1.73413 105.29 1.45035 105.162 1.20632 104.975C0.962296 104.788 0.76459 104.548 0.628547 104.272C0.492504 103.996 0.421784 103.693 0.421875 103.386V2Z" fill="#D9C2EC"/>
</mask>
<g mask="url(#mask0_2_422)">
<path d="M-8.74219 -31H122.635V134.369H-8.74219V-31Z" fill="#BCE3F9"/>
</g>
<path d="M64.1982 29.9277H32.7891V63.7428H64.1982V29.9277Z" fill="#5E3E2F"/>
<path d="M72.1746 68.4814V78.3428C72.1746 80.1789 70.6871 81.6631 68.8543 81.6631H28.1406C26.3078 81.6631 24.8203 80.1789 24.8203 78.3428V68.4814C24.8203 61.1469 30.767 55.2002 38.1016 55.2002H58.8934C66.2279 55.2002 72.1746 61.1469 72.1746 68.4814Z" fill="#E59A5C"/>
<path d="M44.6719 48.082V57.5257C44.6719 58.2561 44.8824 58.9717 45.2782 59.5866C46.7846 61.9267 50.2155 61.9267 51.7219 59.5866C52.1177 58.9717 52.3282 58.2565 52.3282 57.5257V48.082H44.6719Z" fill="#E8C197"/>
<path d="M60.5291 31.7283V37.9705C60.5693 44.655 54.9669 50.0538 48.5029 49.9967C42.039 50.0531 36.4366 44.6553 36.4768 37.9705V31.7283C36.4768 25.0877 41.8623 19.7021 48.5029 19.7021C55.1449 19.7002 60.5271 25.089 60.5291 31.7283Z" fill="#FEDBB0"/>
<path d="M44.1407 17.2996C44.1613 23.6849 40.5896 29.4582 35.1526 32.4166C34.0025 33.0425 32.7969 31.2372 32.7969 29.9277C32.7969 26.9248 35.0656 22.3508 38.1608 19.4943C39.8333 17.9454 41.8338 16.7511 44.0909 16.0332C44.1231 16.4516 44.1407 16.8726 44.1407 17.2996Z" fill="#5E3E2F"/>
<path d="M63.3234 31.3634C53.2423 36.5676 40.5683 30.6276 38.1641 19.4946C39.8272 17.9543 41.8144 16.7646 44.0563 16.0458C53.4285 13.0034 62.7686 20.1357 64.1917 29.6683C64.2943 30.3576 63.9423 31.0439 63.3234 31.3634Z" fill="#5E3E2F"/>
<path d="M44.3045 36.3954C44.3045 37.2003 43.6521 37.8524 42.8476 37.8524C42.0431 37.8524 41.3906 37.1999 41.3906 36.3954C41.3906 35.5909 42.0431 34.9385 42.8476 34.9385C43.6521 34.9381 44.3045 35.5906 44.3045 36.3954Z" fill="#725246"/>
<path d="M55.6092 36.3954C55.6092 37.2003 54.9568 37.8524 54.1523 37.8524C53.3478 37.8524 52.6953 37.1999 52.6953 36.3954C52.6953 35.5909 53.3478 34.9385 54.1523 34.9385C54.9571 34.9381 55.6092 35.5906 55.6092 36.3954Z" fill="#725246"/>
<path d="M57.0771 55.1999L52.3221 53.055V55.1173L48.4941 61.0825L44.6661 55.1169V53.0547L39.9141 55.1996L46.0019 71.7235C46.8555 74.0407 50.1327 74.0407 50.9866 71.7238L57.0771 55.1999Z" fill="#CC628E"/>
<path d="M39.9141 55.2003L43.4977 64.9208C43.6434 65.3162 44.1498 65.4272 44.4479 65.1293L48.4937 61.0832L44.6658 55.1176V53.0557L39.9141 55.2003Z" fill="#E06E9A"/>
<path d="M57.0752 55.2003L53.4886 64.9208C53.3428 65.3162 52.8365 65.4272 52.5383 65.1293L48.4922 61.0832L52.3202 55.1176V53.0557L57.0752 55.2003Z" fill="#E06E9A"/>
<path d="M38.1946 34.6191H36.4688V33.623H38.5267L38.1946 34.6191Z" fill="#EF7816"/>
<path d="M60.5189 34.6191H58.793L58.4609 33.623H60.5189V34.6191Z" fill="#EF7816"/>
<path d="M50.6391 42.4287C50.9698 42.4287 51.2205 42.7375 51.1442 43.0596C50.8596 44.2559 49.7842 45.1457 48.5009 45.1457C47.2176 45.1457 46.1421 44.2559 45.8576 43.0596C45.7812 42.7378 46.0315 42.4287 46.3626 42.4287H50.6391Z" fill="#D1AB86"/>
<path d="M43.4645 40.7292H41.5586C39.5448 40.7292 37.9062 39.0906 37.9062 37.0769V34.7819C37.9062 33.648 38.8286 32.7256 39.9622 32.7256H45.7246C46.8581 32.7256 47.7805 33.648 47.7805 34.7819V36.4128C47.7809 38.7928 45.8445 40.7292 43.4645 40.7292ZM39.9622 33.3896C39.1945 33.3896 38.5703 34.0142 38.5703 34.7819V37.0769C38.5703 38.7244 39.9107 40.0651 41.5586 40.0651H43.4645C45.4782 40.0651 47.1168 38.4266 47.1168 36.4128V34.7819C47.1168 34.0142 46.4922 33.3896 45.7249 33.3896H39.9622Z" fill="#F79219"/>
<path d="M55.4332 40.7292H53.5273C51.1473 40.7292 49.2109 38.7928 49.2109 36.4128V34.7819C49.2109 33.648 50.1333 32.7256 51.2669 32.7256H57.0293C58.1628 32.7256 59.0852 33.648 59.0852 34.7819V37.0769C59.0856 39.0906 57.447 40.7292 55.4332 40.7292ZM51.2669 33.3896C50.4992 33.3896 49.875 34.0142 49.875 34.7819V36.4128C49.875 38.4266 51.5136 40.0651 53.5273 40.0651H55.4332C57.0811 40.0651 58.4215 38.7244 58.4215 37.0769V34.7819C58.4215 34.0142 57.7969 33.3896 57.0296 33.3896H51.2669Z" fill="#F79219"/>
<path d="M49.5459 34.8418H47.4531V35.5059H49.5459V34.8418Z" fill="#F79219"/>
<path d="M65.5303 55.4662V29.928C65.5317 29.7829 65.521 29.6252 65.4981 29.4722C64.8726 25.2819 62.805 21.3915 59.6763 18.5185C56.509 15.6099 52.5366 14.0078 48.4915 14.0078C46.8898 14.0078 45.289 14.2588 43.7325 14.7536C43.7155 14.7582 43.6983 14.7635 43.6813 14.7688C41.2994 15.5328 39.0767 16.8304 37.2539 18.5204C33.9545 21.5652 31.4646 26.4703 31.4646 29.9277V55.4659C26.5937 57.9508 23.4922 62.9671 23.4922 68.4809V78.3422C23.4922 80.9055 25.5773 82.9906 28.1406 82.9906H68.8543C71.4176 82.9906 73.5027 80.9055 73.5027 78.3422V68.4809C73.5027 62.9675 70.4012 57.9511 65.5303 55.4662ZM72.1746 78.3425C72.1746 80.1786 70.6871 81.6628 68.8543 81.6628H28.1406C26.3078 81.6628 24.8203 80.1786 24.8203 78.3425V68.4812C24.8203 63.0345 28.1011 58.3559 32.7927 56.3066V29.928C32.7927 26.9252 35.0615 22.3511 38.1567 19.4946C39.85 17.9248 41.8887 16.7391 44.0868 16.0335C44.0868 16.0339 44.0868 16.0342 44.0868 16.0345C45.5663 15.5584 47.0445 15.3359 48.4908 15.3359C56.1943 15.3359 62.9873 21.6535 64.1839 29.6684C64.1969 29.7551 64.2025 29.8421 64.2012 29.9277L64.2015 56.3063C68.8935 58.3552 72.1739 63.0342 72.1739 68.4809V78.3425H72.1746Z" fill="#422618"/>
</svg>
